<svg xmlns="http://www.w3.org/2000/svg" width="200" height="100" viewBox="0 0 200 100" version="1.1"><path d="M 89.741 29.500 L 80.007 49 89.741 68.500 C 95.096 79.225, 99.712 88, 100 88 C 100.288 88, 104.904 79.225, 110.259 68.500 L 119.993 49 110.259 29.500 C 104.904 18.775, 100.288 10, 100 10 C 99.712 10, 95.096 18.775, 89.741 29.500 M 99.333 17.667 L 100 18.333 100.667 17.667 L 101.333 17 100 17 L 98.667 17 99.333 17.667 M 98.750 19.662 C 99.438 19.940, 100.563 19.940, 101.250 19.662 L 102.500 19.158 100 19.158 L 97.500 19.158 98.750 19.662 M 98.250 21.689 C 99.213 21.941, 100.787 21.941, 101.750 21.689 L 103.500 21.232 100 21.232 L 96.500 21.232 98.250 21.689 M 97.750 23.706 C 98.987 23.944, 101.013 23.944, 102.250 23.706 L 104.500 23.272 100 23.272 L 95.500 23.272 97.750 23.706 M 97.250 25.716 C 98.763 25.945, 101.237 25.945, 102.750 25.716 L 105.500 25.300 100 25.300 L 94.500 25.300 97.250 25.716 M 96.750 27.723 C 98.537 27.945, 101.463 27.945, 103.250 27.723 L 106.500 27.320 100 27.320 L 93.500 27.320 96.750 27.723 M 96.250 29.728 C 98.313 29.944, 101.688 29.944, 103.750 29.728 L 107.500 29.336 100 29.336 L 92.500 29.336 96.250 29.728 M 95.750 31.732 C 98.087 31.943, 101.912 31.943, 104.250 31.732 L 108.500 31.349 100 31.349 L 91.500 31.349 95.750 31.732 M 95.250 33.735 C 97.862 33.941, 102.138 33.941, 104.750 33.735 L 109.500 33.360 100 33.360 L 90.500 33.360 95.250 33.735 M 94.750 35.737 C 97.638 35.939, 102.362 35.939, 105.250 35.737 L 110.500 35.370 100 35.370 L 89.500 35.370 94.750 35.737 M 94.250 37.739 C 97.412 37.937, 102.587 37.937, 105.750 37.739 L 111.500 37.378 100 37.378 L 88.500 37.378 94.250 37.739 M 93.750 39.740 C 97.188 39.936, 102.813 39.936, 106.250 39.740 L 112.500 39.385 100 39.385 L 87.500 39.385 93.750 39.740 M 93.250 41.742 C 96.963 41.934, 103.037 41.934, 106.750 41.742 L 113.500 41.392 100 41.392 L 86.500 41.392 93.250 41.742 M 92.750 43.743 C 96.737 43.932, 103.263 43.932, 107.250 43.743 L 114.500 43.397 100 43.397 L 85.500 43.397 92.750 43.743 M 92.250 45.743 C 96.513 45.931, 103.487 45.931, 107.750 45.743 L 115.500 45.402 100 45.402 L 84.500 45.402 92.250 45.743 M 91.750 47.744 C 96.287 47.929, 103.713 47.929, 108.250 47.744 L 116.500 47.407 100 47.407 L 83.500 47.407 91.750 47.744 M 91.750 49.744 C 96.287 49.929, 103.713 49.929, 108.250 49.744 L 116.500 49.407 100 49.407 L 83.500 49.407 91.750 49.744 M 92.250 51.743 C 96.513 51.931, 103.487 51.931, 107.750 51.743 L 115.500 51.402 100 51.402 L 84.500 51.402 92.250 51.743 M 92.750 53.743 C 96.737 53.932, 103.263 53.932, 107.250 53.743 L 114.500 53.397 100 53.397 L 85.500 53.397 92.750 53.743 M 93.250 55.742 C 96.963 55.934, 103.037 55.934, 106.750 55.742 L 113.500 55.392 100 55.392 L 86.500 55.392 93.250 55.742 M 93.750 57.740 C 97.188 57.936, 102.813 57.936, 106.250 57.740 L 112.500 57.385 100 57.385 L 87.500 57.385 93.750 57.740 M 94.250 59.739 C 97.412 59.937, 102.587 59.937, 105.750 59.739 L 111.500 59.378 100 59.378 L 88.500 59.378 94.250 59.739 M 94.750 61.737 C 97.638 61.939, 102.362 61.939, 105.250 61.737 L 110.500 61.370 100 61.370 L 89.500 61.370 94.750 61.737 M 95.250 63.735 C 97.862 63.941, 102.138 63.941, 104.750 63.735 L 109.500 63.360 100 63.360 L 90.500 63.360 95.250 63.735 M 95.750 65.732 C 98.087 65.943, 101.912 65.943, 104.250 65.732 L 108.500 65.349 100 65.349 L 91.500 65.349 95.750 65.732 M 96.250 67.728 C 98.313 67.944, 101.688 67.944, 103.750 67.728 L 107.500 67.336 100 67.336 L 92.500 67.336 96.250 67.728 M 96.750 69.723 C 98.537 69.945, 101.463 69.945, 103.250 69.723 L 106.500 69.320 100 69.320 L 93.500 69.320 96.750 69.723 M 97.250 71.716 C 98.763 71.945, 101.237 71.945, 102.750 71.716 L 105.500 71.300 100 71.300 L 94.500 71.300 97.250 71.716 M 97.750 73.706 C 98.987 73.944, 101.013 73.944, 102.250 73.706 L 104.500 73.272 100 73.272 L 95.500 73.272 97.750 73.706 M 98.250 75.689 C 99.213 75.941, 100.787 75.941, 101.750 75.689 L 103.500 75.232 100 75.232 L 96.500 75.232 98.250 75.689 M 98.750 77.662 C 99.438 77.940, 100.563 77.940, 101.250 77.662 L 102.500 77.158 100 77.158 L 97.500 77.158 98.750 77.662 M 99.333 79.667 L 100 80.333 100.667 79.667 L 101.333 79 100 79 L 98.667 79 99.333 79.667" stroke="none" fill="#12c567" fill-rule="evenodd"/><path d="M 2.923 2.923 L 0 5.846 0 50 L 0 94.154 2.923 97.077 L 5.846 100 100.055 100 L 194.264 100 197.632 96.429 L 201 92.858 201 48.762 L 201 4.667 200.455 5.212 L 199.910 5.756 197.032 2.878 L 194.154 0 100 0 L 5.846 0 2.923 2.923 M 0.460 50 L 0.460 94.500 0.749 72.250 C 0.908 60.013, 0.908 39.988, 0.749 27.750 L 0.460 5.500 0.460 50 M 89.741 29.500 L 80.007 49 89.741 68.500 C 95.096 79.225, 99.712 88, 100 88 C 100.288 88, 104.904 79.225, 110.259 68.500 L 119.993 49 110.259 29.500 C 104.904 18.775, 100.288 10, 100 10 C 99.712 10, 95.096 18.775, 89.741 29.500 M 99.333 17.667 L 100 18.333 100.667 17.667 L 101.333 17 100 17 L 98.667 17 99.333 17.667 M 98.750 19.662 C 99.438 19.940, 100.563 19.940, 101.250 19.662 L 102.500 19.158 100 19.158 L 97.500 19.158 98.750 19.662 M 98.250 21.689 C 99.213 21.941, 100.787 21.941, 101.750 21.689 L 103.500 21.232 100 21.232 L 96.500 21.232 98.250 21.689 M 97.750 23.706 C 98.987 23.944, 101.013 23.944, 102.250 23.706 L 104.500 23.272 100 23.272 L 95.500 23.272 97.750 23.706 M 97.250 25.716 C 98.763 25.945, 101.237 25.945, 102.750 25.716 L 105.500 25.300 100 25.300 L 94.500 25.300 97.250 25.716 M 96.750 27.723 C 98.537 27.945, 101.463 27.945, 103.250 27.723 L 106.500 27.320 100 27.320 L 93.500 27.320 96.750 27.723 M 96.250 29.728 C 98.313 29.944, 101.688 29.944, 103.750 29.728 L 107.500 29.336 100 29.336 L 92.500 29.336 96.250 29.728 M 95.750 31.732 C 98.087 31.943, 101.912 31.943, 104.250 31.732 L 108.500 31.349 100 31.349 L 91.500 31.349 95.750 31.732 M 95.250 33.735 C 97.862 33.941, 102.138 33.941, 104.750 33.735 L 109.500 33.360 100 33.360 L 90.500 33.360 95.250 33.735 M 94.750 35.737 C 97.638 35.939, 102.362 35.939, 105.250 35.737 L 110.500 35.370 100 35.370 L 89.500 35.370 94.750 35.737 M 94.250 37.739 C 97.412 37.937, 102.587 37.937, 105.750 37.739 L 111.500 37.378 100 37.378 L 88.500 37.378 94.250 37.739 M 93.750 39.740 C 97.188 39.936, 102.813 39.936, 106.250 39.740 L 112.500 39.385 100 39.385 L 87.500 39.385 93.750 39.740 M 93.250 41.742 C 96.963 41.934, 103.037 41.934, 106.750 41.742 L 113.500 41.392 100 41.392 L 86.500 41.392 93.250 41.742 M 92.750 43.743 C 96.737 43.932, 103.263 43.932, 107.250 43.743 L 114.500 43.397 100 43.397 L 85.500 43.397 92.750 43.743 M 92.250 45.743 C 96.513 45.931, 103.487 45.931, 107.750 45.743 L 115.500 45.402 100 45.402 L 84.500 45.402 92.250 45.743 M 91.750 47.744 C 96.287 47.929, 103.713 47.929, 108.250 47.744 L 116.500 47.407 100 47.407 L 83.500 47.407 91.750 47.744 M 91.750 49.744 C 96.287 49.929, 103.713 49.929, 108.250 49.744 L 116.500 49.407 100 49.407 L 83.500 49.407 91.750 49.744 M 92.250 51.743 C 96.513 51.931, 103.487 51.931, 107.750 51.743 L 115.500 51.402 100 51.402 L 84.500 51.402 92.250 51.743 M 92.750 53.743 C 96.737 53.932, 103.263 53.932, 107.250 53.743 L 114.500 53.397 100 53.397 L 85.500 53.397 92.750 53.743 M 93.250 55.742 C 96.963 55.934, 103.037 55.934, 106.750 55.742 L 113.500 55.392 100 55.392 L 86.500 55.392 93.250 55.742 M 93.750 57.740 C 97.188 57.936, 102.813 57.936, 106.250 57.740 L 112.500 57.385 100 57.385 L 87.500 57.385 93.750 57.740 M 94.250 59.739 C 97.412 59.937, 102.587 59.937, 105.750 59.739 L 111.500 59.378 100 59.378 L 88.500 59.378 94.250 59.739 M 94.750 61.737 C 97.638 61.939, 102.362 61.939, 105.250 61.737 L 110.500 61.370 100 61.370 L 89.500 61.370 94.750 61.737 M 95.250 63.735 C 97.862 63.941, 102.138 63.941, 104.750 63.735 L 109.500 63.360 100 63.360 L 90.500 63.360 95.250 63.735 M 95.750 65.732 C 98.087 65.943, 101.912 65.943, 104.250 65.732 L 108.500 65.349 100 65.349 L 91.500 65.349 95.750 65.732 M 96.250 67.728 C 98.313 67.944, 101.688 67.944, 103.750 67.728 L 107.500 67.336 100 67.336 L 92.500 67.336 96.250 67.728 M 96.750 69.723 C 98.537 69.945, 101.463 69.945, 103.250 69.723 L 106.500 69.320 100 69.320 L 93.500 69.320 96.750 69.723 M 97.250 71.716 C 98.763 71.945, 101.237 71.945, 102.750 71.716 L 105.500 71.300 100 71.300 L 94.500 71.300 97.250 71.716 M 97.750 73.706 C 98.987 73.944, 101.013 73.944, 102.250 73.706 L 104.500 73.272 100 73.272 L 95.500 73.272 97.750 73.706 M 98.250 75.689 C 99.213 75.941, 100.787 75.941, 101.750 75.689 L 103.500 75.232 100 75.232 L 96.500 75.232 98.250 75.689 M 98.750 77.662 C 99.438 77.940, 100.563 77.940, 101.250 77.662 L 102.500 77.158 100 77.158 L 97.500 77.158 98.750 77.662 M 99.333 79.667 L 100 80.333 100.667 79.667 L 101.333 79 100 79 L 98.667 79 99.333 79.667" stroke="none" fill="#fbfbfb" fill-rule="evenodd"/></svg>