<?xml version="1.0" encoding="UTF-8"?>
<!DOCTYPE svg PUBLIC "-//W3C//DTD SVG 1.1//EN" "http://www.w3.org/Graphics/SVG/1.1/DTD/svg11.dtd">
<svg xmlns="http://www.w3.org/2000/svg" version="1.1" width="200px" height="100px" style="shape-rendering:geometricPrecision; text-rendering:geometricPrecision; image-rendering:optimizeQuality; fill-rule:evenodd; clip-rule:evenodd" xmlns:xlink="http://www.w3.org/1999/xlink">
<g><path style="opacity:0.997" fill="#fefefe" d="M 4.5,-0.5 C 67.8333,-0.5 131.167,-0.5 194.5,-0.5C 196.167,1.16667 197.833,2.83333 199.5,4.5C 199.5,34.5 199.5,64.5 199.5,94.5C 197.833,96.1667 196.167,97.8333 194.5,99.5C 131.167,99.5 67.8333,99.5 4.5,99.5C 2.83333,97.8333 1.16667,96.1667 -0.5,94.5C -0.5,64.5 -0.5,34.5 -0.5,4.5C 1.16667,2.83333 2.83333,1.16667 4.5,-0.5 Z"/></g>
<g><path style="opacity:1" fill="#8adba0" d="M 45.5,9.5 C 57.6048,7.79907 66.1048,12.4657 71,23.5C 71.6667,40.5 71.6667,57.5 71,74.5C 64.5915,89.1942 54.0915,93.0275 39.5,86C 36.1166,82.7308 33.6166,78.8974 32,74.5C 31.3333,57.5 31.3333,40.5 32,23.5C 34.6873,16.981 39.1873,12.3143 45.5,9.5 Z"/></g>
<g><path style="opacity:1" fill="#8adba0" d="M 93.5,9.5 C 105.605,7.79907 114.105,12.4657 119,23.5C 119.667,40.5 119.667,57.5 119,74.5C 112.591,89.1942 102.091,93.0275 87.5,86C 84.1166,82.7308 81.6166,78.8974 80,74.5C 79.3333,57.5 79.3333,40.5 80,23.5C 82.6873,16.981 87.1873,12.3143 93.5,9.5 Z"/></g>
<g><path style="opacity:1" fill="#8adba0" d="M 141.5,9.5 C 153.605,7.79907 162.105,12.4657 167,23.5C 167.667,40.5 167.667,57.5 167,74.5C 160.591,89.1942 150.091,93.0275 135.5,86C 132.117,82.7308 129.617,78.8974 128,74.5C 127.333,57.5 127.333,40.5 128,23.5C 130.687,16.981 135.187,12.3143 141.5,9.5 Z"/></g>
</svg>
