<?xml version="1.0" encoding="UTF-8"?>
<!DOCTYPE svg PUBLIC "-//W3C//DTD SVG 1.1//EN" "http://www.w3.org/Graphics/SVG/1.1/DTD/svg11.dtd">
<svg xmlns="http://www.w3.org/2000/svg" version="1.1" width="200px" height="100px" style="shape-rendering:geometricPrecision; text-rendering:geometricPrecision; image-rendering:optimizeQuality; fill-rule:evenodd; clip-rule:evenodd" xmlns:xlink="http://www.w3.org/1999/xlink">
<g><path style="opacity:0.998" fill="#fefefe" d="M 4.5,-0.5 C 67.8333,-0.5 131.167,-0.5 194.5,-0.5C 196.167,1.16667 197.833,2.83333 199.5,4.5C 199.5,34.5 199.5,64.5 199.5,94.5C 197.833,96.1667 196.167,97.8333 194.5,99.5C 131.167,99.5 67.8333,99.5 4.5,99.5C 2.83333,97.8333 1.16667,96.1667 -0.5,94.5C -0.5,64.5 -0.5,34.5 -0.5,4.5C 1.16667,2.83333 2.83333,1.16667 4.5,-0.5 Z"/></g>
<g><path style="opacity:1" fill="#24c46c" d="M 70.5,9.5 C 82.6522,8.17668 90.8188,13.1767 95,24.5C 95.6667,41.1667 95.6667,57.8333 95,74.5C 90.0372,87.3977 80.8705,91.8977 67.5,88C 61.5082,85.3413 57.6748,80.8413 56,74.5C 55.3333,57.8333 55.3333,41.1667 56,24.5C 58.3509,16.9841 63.1842,11.9841 70.5,9.5 Z"/></g>
<g><path style="opacity:1" fill="#24c46c" d="M 119.5,9.5 C 131.652,8.17668 139.819,13.1767 144,24.5C 144.667,41.1667 144.667,57.8333 144,74.5C 139.037,87.3977 129.871,91.8977 116.5,88C 110.508,85.3413 106.675,80.8413 105,74.5C 104.333,57.8333 104.333,41.1667 105,24.5C 107.351,16.9841 112.184,11.9841 119.5,9.5 Z"/></g>
<g><path style="opacity:1" fill="#fdfefe" d="M 70.5,12.5 C 80.6795,11.1717 87.8461,15.1717 92,24.5C 92.6667,40.8333 92.6667,57.1667 92,73.5C 87.0312,85.6003 78.5312,89.1003 66.5,84C 62.8062,81.3133 60.3062,77.8133 59,73.5C 58.3333,57.1667 58.3333,40.8333 59,24.5C 61.6907,19.3111 65.5241,15.3111 70.5,12.5 Z"/></g>
<g><path style="opacity:1" fill="#fdfefe" d="M 119.5,12.5 C 129.679,11.1717 136.846,15.1717 141,24.5C 141.667,40.8333 141.667,57.1667 141,73.5C 136.031,85.6003 127.531,89.1003 115.5,84C 111.806,81.3133 109.306,77.8133 108,73.5C 107.333,57.1667 107.333,40.8333 108,24.5C 110.691,19.3111 114.524,15.3111 119.5,12.5 Z"/></g>
</svg>
