<?xml version="1.0" encoding="UTF-8"?>
<!DOCTYPE svg PUBLIC "-//W3C//DTD SVG 1.1//EN" "http://www.w3.org/Graphics/SVG/1.1/DTD/svg11.dtd">
<svg xmlns="http://www.w3.org/2000/svg" version="1.1" width="200px" height="100px" style="shape-rendering:geometricPrecision; text-rendering:geometricPrecision; image-rendering:optimizeQuality; fill-rule:evenodd; clip-rule:evenodd" xmlns:xlink="http://www.w3.org/1999/xlink">
<g><path style="opacity:0.998" fill="#fdfefe" d="M 4.5,-0.5 C 67.8333,-0.5 131.167,-0.5 194.5,-0.5C 196.167,1.16667 197.833,2.83333 199.5,4.5C 199.5,34.5 199.5,64.5 199.5,94.5C 197.833,96.1667 196.167,97.8333 194.5,99.5C 131.167,99.5 67.8333,99.5 4.5,99.5C 2.83333,97.8333 1.16667,96.1667 -0.5,94.5C -0.5,64.5 -0.5,34.5 -0.5,4.5C 1.16667,2.83333 2.83333,1.16667 4.5,-0.5 Z"/></g>
<g><path style="opacity:1" fill="#14c166" d="M 38.5,9.5 C 44.9773,9.2809 51.3106,10.1142 57.5,12C 66.4243,16.0147 69.9243,22.848 68,32.5C 65.3159,41.0494 63.1492,49.7161 61.5,58.5C 61.6764,61.8818 62.1764,65.2152 63,68.5C 66.3648,72.5285 68.8648,77.0285 70.5,82C 69.442,86.0522 66.7753,88.3856 62.5,89C 52.0005,89.1706 43.1671,85.3372 36,77.5C 33.5687,71.0513 32.9021,64.3846 34,57.5C 36.5148,50.9041 38.0148,44.0708 38.5,37C 36.1024,30.2078 33.4357,23.5411 30.5,17C 31.7309,12.9348 34.3976,10.4348 38.5,9.5 Z"/></g>
<g><path style="opacity:1" fill="#14c166" d="M 86.5,9.5 C 94.9117,8.95695 102.912,10.4569 110.5,14C 116.437,18.811 118.604,24.9777 117,32.5C 114.316,41.0494 112.149,49.7161 110.5,58.5C 110.676,61.8818 111.176,65.2152 112,68.5C 115.365,72.5285 117.865,77.0285 119.5,82C 118.957,84.8809 117.291,86.8809 114.5,88C 105.349,89.9604 97.0156,87.9604 89.5,82C 86.5665,79.7357 84.3999,76.9024 83,73.5C 82.3333,68.1667 82.3333,62.8333 83,57.5C 85.5148,50.9041 87.0148,44.0708 87.5,37C 85.1024,30.2078 82.4357,23.5411 79.5,17C 80.6349,13.3656 82.9683,10.8656 86.5,9.5 Z"/></g>
<g><path style="opacity:1" fill="#14c166" d="M 136.5,9.5 C 143.748,9.32065 150.748,10.4873 157.5,13C 164.976,17.4148 167.809,23.9148 166,32.5C 163.314,41.0541 161.147,49.7208 159.5,58.5C 159.676,61.8818 160.176,65.2152 161,68.5C 164.161,72.6579 166.661,77.1579 168.5,82C 167.442,86.0522 164.775,88.3856 160.5,89C 150,89.1706 141.167,85.3372 134,77.5C 133.333,76.1667 132.667,74.8333 132,73.5C 131.333,68.1667 131.333,62.8333 132,57.5C 134.632,49.6561 135.966,41.6561 136,33.5C 132.989,28.1797 130.489,22.6797 128.5,17C 129.731,12.9348 132.398,10.4348 136.5,9.5 Z"/></g>
</svg>
