<?xml version="1.0" encoding="UTF-8"?>
<!DOCTYPE svg PUBLIC "-//W3C//DTD SVG 1.1//EN" "http://www.w3.org/Graphics/SVG/1.1/DTD/svg11.dtd">
<svg xmlns="http://www.w3.org/2000/svg" version="1.1" width="200px" height="100px" style="shape-rendering:geometricPrecision; text-rendering:geometricPrecision; image-rendering:optimizeQuality; fill-rule:evenodd; clip-rule:evenodd" xmlns:xlink="http://www.w3.org/1999/xlink">
<g><path style="opacity:0.997" fill="#fefefe" d="M 4.5,-0.5 C 67.8333,-0.5 131.167,-0.5 194.5,-0.5C 196.167,1.16667 197.833,2.83333 199.5,4.5C 199.5,34.5 199.5,64.5 199.5,94.5C 197.833,96.1667 196.167,97.8333 194.5,99.5C 131.167,99.5 67.8333,99.5 4.5,99.5C 2.83333,97.8333 1.16667,96.1667 -0.5,94.5C -0.5,64.5 -0.5,34.5 -0.5,4.5C 1.16667,2.83333 2.83333,1.16667 4.5,-0.5 Z"/></g>
<g><path style="opacity:1" fill="#11c165" d="M 46.5,9.5 C 58.6522,8.17668 66.8188,13.1767 71,24.5C 71.6667,41.1667 71.6667,57.8333 71,74.5C 66.0372,87.3977 56.8705,91.8977 43.5,88C 37.5082,85.3413 33.6748,80.8413 32,74.5C 31.3333,57.8333 31.3333,41.1667 32,24.5C 34.3509,16.9841 39.1842,11.9841 46.5,9.5 Z"/></g>
<g><path style="opacity:1" fill="#11c165" d="M 94.5,9.5 C 106.652,8.17668 114.819,13.1767 119,24.5C 119.667,41.1667 119.667,57.8333 119,74.5C 114.037,87.3977 104.871,91.8977 91.5,88C 85.5082,85.3413 81.6748,80.8413 80,74.5C 79.3333,57.8333 79.3333,41.1667 80,24.5C 82.3509,16.9841 87.1842,11.9841 94.5,9.5 Z"/></g>
<g><path style="opacity:1" fill="#11c165" d="M 142.5,9.5 C 154.652,8.17668 162.819,13.1767 167,24.5C 167.667,41.1667 167.667,57.8333 167,74.5C 162.037,87.3977 152.871,91.8977 139.5,88C 133.508,85.3413 129.675,80.8413 128,74.5C 127.333,57.8333 127.333,41.1667 128,24.5C 130.351,16.9841 135.184,11.9841 142.5,9.5 Z"/></g>
</svg>
