<?xml version="1.0" encoding="UTF-8"?>
<!DOCTYPE svg PUBLIC "-//W3C//DTD SVG 1.1//EN" "http://www.w3.org/Graphics/SVG/1.1/DTD/svg11.dtd">
<svg xmlns="http://www.w3.org/2000/svg" version="1.1" width="200px" height="100px" style="shape-rendering:geometricPrecision; text-rendering:geometricPrecision; image-rendering:optimizeQuality; fill-rule:evenodd; clip-rule:evenodd" xmlns:xlink="http://www.w3.org/1999/xlink">
<g><path style="opacity:0.998" fill="#fefefe" d="M 4.5,-0.5 C 67.8333,-0.5 131.167,-0.5 194.5,-0.5C 196.167,1.16667 197.833,2.83333 199.5,4.5C 199.5,34.5 199.5,64.5 199.5,94.5C 197.833,96.1667 196.167,97.8333 194.5,99.5C 131.167,99.5 67.8333,99.5 4.5,99.5C 2.83333,97.8333 1.16667,96.1667 -0.5,94.5C -0.5,64.5 -0.5,34.5 -0.5,4.5C 1.16667,2.83333 2.83333,1.16667 4.5,-0.5 Z"/></g>
<g><path style="opacity:1" fill="#14c166" d="M 87.5,9.5 C 98.1819,8.23673 107.349,11.2367 115,18.5C 117.27,22.9301 117.937,27.5967 117,32.5C 114.32,41.0387 112.154,49.7054 110.5,58.5C 110.676,61.8818 111.176,65.2152 112,68.5C 115.161,72.6579 117.661,77.1579 119.5,82C 118.442,86.0522 115.775,88.3856 111.5,89C 101,89.1706 92.1671,85.3372 85,77.5C 82.5687,71.0513 81.9021,64.3846 83,57.5C 85.5156,50.8924 87.0156,44.0591 87.5,37C 85.1024,30.2078 82.4357,23.5411 79.5,17C 80.7309,12.9348 83.3976,10.4348 87.5,9.5 Z"/></g>
</svg>
