<?xml version="1.0" encoding="UTF-8"?>
<!DOCTYPE svg PUBLIC "-//W3C//DTD SVG 1.1//EN" "http://www.w3.org/Graphics/SVG/1.1/DTD/svg11.dtd">
<svg xmlns="http://www.w3.org/2000/svg" version="1.1" width="200px" height="100px" style="shape-rendering:geometricPrecision; text-rendering:geometricPrecision; image-rendering:optimizeQuality; fill-rule:evenodd; clip-rule:evenodd" xmlns:xlink="http://www.w3.org/1999/xlink">
<g><path style="opacity:0.998" fill="#fdfefe" d="M 4.5,-0.5 C 67.8333,-0.5 131.167,-0.5 194.5,-0.5C 196.167,1.16667 197.833,2.83333 199.5,4.5C 199.5,34.5 199.5,64.5 199.5,94.5C 197.833,96.1667 196.167,97.8333 194.5,99.5C 131.167,99.5 67.8333,99.5 4.5,99.5C 2.83333,97.8333 1.16667,96.1667 -0.5,94.5C -0.5,64.5 -0.5,34.5 -0.5,4.5C 1.16667,2.83333 2.83333,1.16667 4.5,-0.5 Z"/></g>
<g><path style="opacity:1" fill="#30c672" d="M 38.5,9.5 C 46.5707,9.06663 54.2373,10.5666 61.5,14C 67.4374,18.811 69.6041,24.9777 68,32.5C 65.3139,41.0541 63.1473,49.7208 61.5,58.5C 61.6764,61.8818 62.1764,65.2152 63,68.5C 75.2024,84.3089 71.3691,90.8089 51.5,88C 43.7541,85.3899 37.9207,80.5565 34,73.5C 33.3333,68.1667 33.3333,62.8333 34,57.5C 36.5148,50.9041 38.0148,44.0708 38.5,37C 36.1024,30.2078 33.4357,23.5411 30.5,17C 31.7309,12.9348 34.3976,10.4348 38.5,9.5 Z"/></g>
<g><path style="opacity:1" fill="#31c672" d="M 86.5,9.5 C 94.8747,9.21118 102.875,10.7112 110.5,14C 116.437,18.811 118.604,24.9777 117,32.5C 114.314,41.0541 112.147,49.7208 110.5,58.5C 110.676,61.8818 111.176,65.2152 112,68.5C 115.365,72.5285 117.865,77.0285 119.5,82C 118.957,84.8809 117.291,86.8809 114.5,88C 105.349,89.9604 97.0156,87.9604 89.5,82C 86.5665,79.7357 84.3999,76.9024 83,73.5C 82.3333,68.1667 82.3333,62.8333 83,57.5C 85.5148,50.9041 87.0148,44.0708 87.5,37C 85.1024,30.2078 82.4357,23.5411 79.5,17C 80.6349,13.3656 82.9683,10.8656 86.5,9.5 Z"/></g>
<g><path style="opacity:1" fill="#34c773" d="M 136.5,9.5 C 143.748,9.32065 150.748,10.4873 157.5,13C 164.976,17.4148 167.809,23.9148 166,32.5C 163.316,41.0494 161.149,49.7161 159.5,58.5C 159.676,61.8818 160.176,65.2152 161,68.5C 164.161,72.6579 166.661,77.1579 168.5,82C 167.442,86.0522 164.775,88.3856 160.5,89C 150,89.1706 141.167,85.3372 134,77.5C 131.983,73.9327 130.816,70.0994 130.5,66C 132.345,56.6219 134.345,47.2886 136.5,38C 136.333,36.5 136.167,35 136,33.5C 132.989,28.1797 130.489,22.6797 128.5,17C 129.731,12.9348 132.398,10.4348 136.5,9.5 Z"/></g>
<g><path style="opacity:1" fill="#fbfefc" d="M 38.5,12.5 C 47.5974,11.8796 55.764,14.213 63,19.5C 65.3403,23.5554 66.007,27.8887 65,32.5C 62.0393,41.3415 59.8727,50.3415 58.5,59.5C 58.6667,61.8333 58.8333,64.1667 59,66.5C 61.4452,71.8914 64.2786,77.058 67.5,82C 67.2409,83.2613 66.5742,84.2613 65.5,85C 61.1485,86.8947 56.8151,86.8947 52.5,85C 48.6733,83.254 45.0066,81.254 41.5,79C 39.3834,77.2691 37.8834,75.1024 37,72.5C 36.3333,67.8333 36.3333,63.1667 37,58.5C 38.8201,51.888 40.3201,45.2213 41.5,38.5C 41.458,35.7414 40.958,33.0747 40,30.5C 37.8152,26.1304 35.6485,21.7971 33.5,17.5C 34.8545,15.4788 36.5212,13.8121 38.5,12.5 Z"/></g>
<g><path style="opacity:1" fill="#fcfefd" d="M 87.5,12.5 C 94.4015,12.3136 101.068,13.4802 107.5,16C 110,17.1667 111.833,19 113,21.5C 113.667,26.5 113.667,31.5 113,36.5C 110.229,43.9709 108.396,51.6375 107.5,59.5C 107.667,61.8333 107.833,64.1667 108,66.5C 110.445,71.8914 113.279,77.058 116.5,82C 116.241,83.2613 115.574,84.2613 114.5,85C 110.148,86.8947 105.815,86.8947 101.5,85C 97.6733,83.254 94.0066,81.254 90.5,79C 88.3834,77.2691 86.8834,75.1024 86,72.5C 85.3333,67.8333 85.3333,63.1667 86,58.5C 87.8201,51.888 89.3201,45.2213 90.5,38.5C 90.458,35.7414 89.958,33.0747 89,30.5C 86.5909,26.2662 84.4242,21.9329 82.5,17.5C 82.6667,16.8333 82.8333,16.1667 83,15.5C 84.6516,14.6006 86.1516,13.6006 87.5,12.5 Z"/></g>
<g><path style="opacity:1" fill="#fcfefd" d="M 136.5,12.5 C 143.443,12.0689 150.11,13.2355 156.5,16C 159,17.1667 160.833,19 162,21.5C 162.667,26.5 162.667,31.5 162,36.5C 159.229,43.9709 157.396,51.6375 156.5,59.5C 156.482,62.9238 156.982,66.2572 158,69.5C 160.884,73.4343 163.384,77.601 165.5,82C 165.241,83.2613 164.574,84.2613 163.5,85C 159.148,86.8947 154.815,86.8947 150.5,85C 146.673,83.254 143.007,81.254 139.5,79C 137.383,77.2691 135.883,75.1024 135,72.5C 134.333,67.8333 134.333,63.1667 135,58.5C 136.82,51.888 138.32,45.2213 139.5,38.5C 139.458,35.7414 138.958,33.0747 138,30.5C 135.375,26.2122 133.209,21.7122 131.5,17C 132.761,15.0382 134.428,13.5382 136.5,12.5 Z"/></g>
</svg>
