<?xml version="1.0" encoding="UTF-8"?>
<!DOCTYPE svg PUBLIC "-//W3C//DTD SVG 1.1//EN" "http://www.w3.org/Graphics/SVG/1.1/DTD/svg11.dtd">
<svg xmlns="http://www.w3.org/2000/svg" version="1.1" width="200px" height="100px" style="shape-rendering:geometricPrecision; text-rendering:geometricPrecision; image-rendering:optimizeQuality; fill-rule:evenodd; clip-rule:evenodd" xmlns:xlink="http://www.w3.org/1999/xlink">
<g><path style="opacity:0.998" fill="#fefefe" d="M 4.5,-0.5 C 67.8333,-0.5 131.167,-0.5 194.5,-0.5C 196.167,1.16667 197.833,2.83333 199.5,4.5C 199.5,34.5 199.5,64.5 199.5,94.5C 197.833,96.1667 196.167,97.8333 194.5,99.5C 131.167,99.5 67.8333,99.5 4.5,99.5C 2.83333,97.8333 1.16667,96.1667 -0.5,94.5C -0.5,64.5 -0.5,34.5 -0.5,4.5C 1.16667,2.83333 2.83333,1.16667 4.5,-0.5 Z"/></g>
<g><path style="opacity:1" fill="#84d99c" d="M 87.5,9.5 C 98.1819,8.23673 107.349,11.2367 115,18.5C 117.401,23.2317 118.068,28.2317 117,33.5C 114.128,42.1544 111.961,50.9877 110.5,60C 110.767,67.366 113.6,73.5327 119,78.5C 120.291,83.5621 118.458,87.0621 113.5,89C 102.166,89.7508 92.6659,85.9175 85,77.5C 82.9828,73.9327 81.8162,70.0994 81.5,66C 83.6578,56.7021 85.6578,47.3688 87.5,38C 85.3761,30.7592 82.7094,23.7592 79.5,17C 80.7309,12.9348 83.3976,10.4348 87.5,9.5 Z"/></g>
</svg>
