<?xml version="1.0" encoding="UTF-8"?>
<!DOCTYPE svg PUBLIC "-//W3C//DTD SVG 1.1//EN" "http://www.w3.org/Graphics/SVG/1.1/DTD/svg11.dtd">
<svg xmlns="http://www.w3.org/2000/svg" version="1.1" width="200px" height="100px" style="shape-rendering:geometricPrecision; text-rendering:geometricPrecision; image-rendering:optimizeQuality; fill-rule:evenodd; clip-rule:evenodd" xmlns:xlink="http://www.w3.org/1999/xlink">
<g><path style="opacity:0.998" fill="#fefefe" d="M 4.5,-0.5 C 67.8333,-0.5 131.167,-0.5 194.5,-0.5C 196.167,1.16667 197.833,2.83333 199.5,4.5C 199.5,34.5 199.5,64.5 199.5,94.5C 197.833,96.1667 196.167,97.8333 194.5,99.5C 131.167,99.5 67.8333,99.5 4.5,99.5C 2.83333,97.8333 1.16667,96.1667 -0.5,94.5C -0.5,64.5 -0.5,34.5 -0.5,4.5C 1.16667,2.83333 2.83333,1.16667 4.5,-0.5 Z"/></g>
<g><path style="opacity:1" fill="#31c672" d="M 87.5,9.5 C 94.7316,9.4445 101.732,10.6112 108.5,13C 115.976,17.4148 118.809,23.9148 117,32.5C 114.314,41.0541 112.147,49.7208 110.5,58.5C 110.676,61.8818 111.176,65.2152 112,68.5C 115.161,72.6579 117.661,77.1579 119.5,82C 118.442,86.0522 115.775,88.3856 111.5,89C 101,89.1706 92.1671,85.3372 85,77.5C 84.3333,76.1667 83.6667,74.8333 83,73.5C 82.3333,68.1667 82.3333,62.8333 83,57.5C 85.5156,50.8924 87.0156,44.0591 87.5,37C 85.1024,30.2078 82.4357,23.5411 79.5,17C 80.7309,12.9348 83.3976,10.4348 87.5,9.5 Z"/></g>
<g><path style="opacity:1" fill="#fcfefd" d="M 87.5,12.5 C 94.4015,12.3136 101.068,13.4802 107.5,16C 110,17.1667 111.833,19 113,21.5C 113.667,26.5 113.667,31.5 113,36.5C 110.229,43.9709 108.396,51.6375 107.5,59.5C 107.482,62.9238 107.982,66.2572 109,69.5C 111.884,73.4343 114.384,77.601 116.5,82C 116.241,83.2613 115.574,84.2613 114.5,85C 110.148,86.8947 105.815,86.8947 101.5,85C 97.6733,83.254 94.0066,81.254 90.5,79C 88.3834,77.2691 86.8834,75.1024 86,72.5C 85.3333,67.8333 85.3333,63.1667 86,58.5C 87.8201,51.888 89.3201,45.2213 90.5,38.5C 90.458,35.7414 89.958,33.0747 89,30.5C 86.5909,26.2662 84.4242,21.9329 82.5,17.5C 83.8545,15.4788 85.5212,13.8121 87.5,12.5 Z"/></g>
</svg>
