<?xml version="1.0" encoding="UTF-8"?>
<!DOCTYPE svg PUBLIC "-//W3C//DTD SVG 1.1//EN" "http://www.w3.org/Graphics/SVG/1.1/DTD/svg11.dtd">
<svg xmlns="http://www.w3.org/2000/svg" version="1.1" width="200px" height="100px" style="shape-rendering:geometricPrecision; text-rendering:geometricPrecision; image-rendering:optimizeQuality; fill-rule:evenodd; clip-rule:evenodd" xmlns:xlink="http://www.w3.org/1999/xlink">
<g><path style="opacity:0.998" fill="#fefefe" d="M 4.5,-0.5 C 67.8333,-0.5 131.167,-0.5 194.5,-0.5C 196.167,1.16667 197.833,2.83333 199.5,4.5C 199.5,34.5 199.5,64.5 199.5,94.5C 197.833,96.1667 196.167,97.8333 194.5,99.5C 131.167,99.5 67.8333,99.5 4.5,99.5C 2.83333,97.8333 1.16667,96.1667 -0.5,94.5C -0.5,64.5 -0.5,34.5 -0.5,4.5C 1.16667,2.83333 2.83333,1.16667 4.5,-0.5 Z"/></g>
<g><path style="opacity:1" fill="#14c166" d="M 63.5,9.5 C 69.9773,9.2809 76.3106,10.1142 82.5,12C 91.4243,16.0147 94.9243,22.848 93,32.5C 90.3159,41.0494 88.1492,49.7161 86.5,58.5C 86.6764,61.8818 87.1764,65.2152 88,68.5C 91.3648,72.5285 93.8648,77.0285 95.5,82C 94.442,86.0522 91.7753,88.3856 87.5,89C 77.0005,89.1706 68.1671,85.3372 61,77.5C 58.5687,71.0513 57.9021,64.3846 59,57.5C 61.5148,50.9041 63.0148,44.0708 63.5,37C 61.1024,30.2078 58.4357,23.5411 55.5,17C 56.7309,12.9348 59.3976,10.4348 63.5,9.5 Z"/></g>
<g><path style="opacity:1" fill="#14c166" d="M 111.5,9.5 C 119.89,9.10191 127.89,10.6019 135.5,14C 141.437,18.811 143.604,24.9777 142,32.5C 139.32,41.0387 137.154,49.7054 135.5,58.5C 135.676,61.8818 136.176,65.2152 137,68.5C 149.259,84.2588 145.426,90.7588 125.5,88C 117.754,85.3899 111.921,80.5565 108,73.5C 107.333,68.1667 107.333,62.8333 108,57.5C 110.632,49.6561 111.966,41.6561 112,33.5C 108.989,28.1797 106.489,22.6797 104.5,17C 105.635,13.3656 107.968,10.8656 111.5,9.5 Z"/></g>
</svg>
