<?xml version="1.0" encoding="UTF-8"?>
<!DOCTYPE svg PUBLIC "-//W3C//DTD SVG 1.1//EN" "http://www.w3.org/Graphics/SVG/1.1/DTD/svg11.dtd">
<svg xmlns="http://www.w3.org/2000/svg" version="1.1" width="200px" height="100px" style="shape-rendering:geometricPrecision; text-rendering:geometricPrecision; image-rendering:optimizeQuality; fill-rule:evenodd; clip-rule:evenodd" xmlns:xlink="http://www.w3.org/1999/xlink">
<g><path style="opacity:0.998" fill="#fefefe" d="M 4.5,-0.5 C 67.8333,-0.5 131.167,-0.5 194.5,-0.5C 196.167,1.16667 197.833,2.83333 199.5,4.5C 199.5,34.5 199.5,64.5 199.5,94.5C 197.833,96.1667 196.167,97.8333 194.5,99.5C 131.167,99.5 67.8333,99.5 4.5,99.5C 2.83333,97.8333 1.16667,96.1667 -0.5,94.5C -0.5,64.5 -0.5,34.5 -0.5,4.5C 1.16667,2.83333 2.83333,1.16667 4.5,-0.5 Z"/></g>
<g><path style="opacity:1" fill="#24c46c" d="M 94.5,9.5 C 106.652,8.17668 114.819,13.1767 119,24.5C 119.667,41.1667 119.667,57.8333 119,74.5C 114.037,87.3977 104.871,91.8977 91.5,88C 85.5082,85.3413 81.6748,80.8413 80,74.5C 79.3333,57.8333 79.3333,41.1667 80,24.5C 82.3509,16.9841 87.1842,11.9841 94.5,9.5 Z"/></g>
<g><path style="opacity:1" fill="#fdfefe" d="M 94.5,12.5 C 104.679,11.1717 111.846,15.1717 116,24.5C 116.667,40.8333 116.667,57.1667 116,73.5C 111.031,85.6003 102.531,89.1003 90.5,84C 86.8062,81.3133 84.3062,77.8133 83,73.5C 82.3333,57.1667 82.3333,40.8333 83,24.5C 85.6907,19.3111 89.5241,15.3111 94.5,12.5 Z"/></g>
</svg>
