<?xml version="1.0" encoding="UTF-8"?>
<!DOCTYPE svg PUBLIC "-//W3C//DTD SVG 1.1//EN" "http://www.w3.org/Graphics/SVG/1.1/DTD/svg11.dtd">
<svg xmlns="http://www.w3.org/2000/svg" version="1.1" width="200px" height="100px" style="shape-rendering:geometricPrecision; text-rendering:geometricPrecision; image-rendering:optimizeQuality; fill-rule:evenodd; clip-rule:evenodd" xmlns:xlink="http://www.w3.org/1999/xlink">
<g><path style="opacity:0.998" fill="#fefefe" d="M 4.5,-0.5 C 67.8333,-0.5 131.167,-0.5 194.5,-0.5C 196.167,1.16667 197.833,2.83333 199.5,4.5C 199.5,34.5 199.5,64.5 199.5,94.5C 197.833,96.1667 196.167,97.8333 194.5,99.5C 131.167,99.5 67.8333,99.5 4.5,99.5C 2.83333,97.8333 1.16667,96.1667 -0.5,94.5C -0.5,64.5 -0.5,34.5 -0.5,4.5C 1.16667,2.83333 2.83333,1.16667 4.5,-0.5 Z"/></g>
<g><path style="opacity:1" fill="#30c672" d="M 63.5,9.5 C 71.5707,9.06663 79.2373,10.5666 86.5,14C 92.4374,18.811 94.6041,24.9777 93,32.5C 90.3159,41.0494 88.1492,49.7161 86.5,58.5C 86.6764,61.8818 87.1764,65.2152 88,68.5C 91.3648,72.5285 93.8648,77.0285 95.5,82C 93.6501,87.6646 89.6501,90.1646 83.5,89.5C 72.7122,88.0321 64.5455,82.6988 59,73.5C 58.3333,68.1667 58.3333,62.8333 59,57.5C 61.5148,50.9041 63.0148,44.0708 63.5,37C 61.1024,30.2078 58.4357,23.5411 55.5,17C 56.7309,12.9348 59.3976,10.4348 63.5,9.5 Z"/></g>
<g><path style="opacity:1" fill="#34c773" d="M 111.5,9.5 C 119.89,9.10191 127.89,10.6019 135.5,14C 141.437,18.811 143.604,24.9777 142,32.5C 139.316,41.0494 137.149,49.7161 135.5,58.5C 135.676,61.8818 136.176,65.2152 137,68.5C 149.259,84.2588 145.426,90.7588 125.5,88C 117.754,85.3899 111.921,80.5565 108,73.5C 106.595,69.9279 106.262,66.2613 107,62.5C 108.92,54.3217 110.754,46.1551 112.5,38C 112.333,36.5 112.167,35 112,33.5C 108.989,28.1797 106.489,22.6797 104.5,17C 105.635,13.3656 107.968,10.8656 111.5,9.5 Z"/></g>
<g><path style="opacity:1" fill="#fbfefc" d="M 63.5,12.5 C 72.5974,11.8796 80.764,14.213 88,19.5C 90.3403,23.5554 91.007,27.8887 90,32.5C 87.0393,41.3415 84.8727,50.3415 83.5,59.5C 83.6667,61.8333 83.8333,64.1667 84,66.5C 86.4452,71.8914 89.2786,77.058 92.5,82C 92.2409,83.2613 91.5742,84.2613 90.5,85C 86.1485,86.8947 81.8151,86.8947 77.5,85C 73.6733,83.254 70.0066,81.254 66.5,79C 64.3834,77.2691 62.8834,75.1024 62,72.5C 61.3333,67.8333 61.3333,63.1667 62,58.5C 63.8201,51.888 65.3201,45.2213 66.5,38.5C 66.458,35.7414 65.958,33.0747 65,30.5C 62.8152,26.1304 60.6485,21.7971 58.5,17.5C 59.8545,15.4788 61.5212,13.8121 63.5,12.5 Z"/></g>
<g><path style="opacity:1" fill="#fcfefd" d="M 112.5,12.5 C 119.443,12.0689 126.11,13.2355 132.5,16C 135,17.1667 136.833,19 138,21.5C 138.667,26.5 138.667,31.5 138,36.5C 135.229,43.9709 133.396,51.6375 132.5,59.5C 132.482,62.9238 132.982,66.2572 134,69.5C 136.884,73.4343 139.384,77.601 141.5,82C 141.241,83.2613 140.574,84.2613 139.5,85C 135.148,86.8947 130.815,86.8947 126.5,85C 122.673,83.254 119.007,81.254 115.5,79C 113.383,77.2691 111.883,75.1024 111,72.5C 110.333,67.8333 110.333,63.1667 111,58.5C 112.82,51.888 114.32,45.2213 115.5,38.5C 115.458,35.7414 114.958,33.0747 114,30.5C 111.375,26.2122 109.209,21.7122 107.5,17C 108.761,15.0382 110.428,13.5382 112.5,12.5 Z"/></g>
</svg>
