<?xml version="1.0" encoding="UTF-8"?>
<!DOCTYPE svg PUBLIC "-//W3C//DTD SVG 1.1//EN" "http://www.w3.org/Graphics/SVG/1.1/DTD/svg11.dtd">
<svg xmlns="http://www.w3.org/2000/svg" version="1.1" width="200px" height="100px" style="shape-rendering:geometricPrecision; text-rendering:geometricPrecision; image-rendering:optimizeQuality; fill-rule:evenodd; clip-rule:evenodd" xmlns:xlink="http://www.w3.org/1999/xlink">
<g><path style="opacity:0.998" fill="#fefefe" d="M 4.5,-0.5 C 67.8333,-0.5 131.167,-0.5 194.5,-0.5C 196.167,1.16667 197.833,2.83333 199.5,4.5C 199.5,34.5 199.5,64.5 199.5,94.5C 197.833,96.1667 196.167,97.8333 194.5,99.5C 131.167,99.5 67.8333,99.5 4.5,99.5C 2.83333,97.8333 1.16667,96.1667 -0.5,94.5C -0.5,64.5 -0.5,34.5 -0.5,4.5C 1.16667,2.83333 2.83333,1.16667 4.5,-0.5 Z"/></g>
<g><path style="opacity:1" fill="#c07cbb" d="M 62.5,9.5 C 71.9425,8.36149 80.6092,10.3615 88.5,15.5C 92.9473,20.3483 94.4473,26.015 93,32.5C 90.7471,41.3443 88.5805,50.1776 86.5,59C 86.6368,61.898 87.1368,64.7314 88,67.5C 90.9682,72.1229 93.4682,76.9562 95.5,82C 93.6501,87.6646 89.6501,90.1646 83.5,89.5C 71.3915,87.8777 62.8915,81.5443 58,70.5C 57.5752,66.1305 57.9085,61.7972 59,57.5C 60.7374,51.0506 62.2374,44.5506 63.5,38C 61.5135,30.8668 58.8468,24.0334 55.5,17.5C 56.4106,13.5894 58.7439,10.9227 62.5,9.5 Z"/></g>
<g><path style="opacity:1" fill="#c07cbb" d="M 111.5,9.5 C 119.973,8.59816 127.973,10.0982 135.5,14C 141.437,18.811 143.604,24.9777 142,32.5C 139.747,41.3443 137.58,50.1776 135.5,59C 135.637,61.898 136.137,64.7314 137,67.5C 139.968,72.1229 142.468,76.9562 144.5,82C 142.65,87.6646 138.65,90.1646 132.5,89.5C 120.392,87.8777 111.892,81.5443 107,70.5C 106.575,66.1305 106.908,61.7972 108,57.5C 109.737,51.0506 111.237,44.5506 112.5,38C 110.513,30.8668 107.847,24.0334 104.5,17.5C 105.411,13.5894 107.744,10.9227 111.5,9.5 Z"/></g>
</svg>
