<?xml version="1.0" encoding="UTF-8"?>
<!DOCTYPE svg PUBLIC "-//W3C//DTD SVG 1.1//EN" "http://www.w3.org/Graphics/SVG/1.1/DTD/svg11.dtd">
<svg xmlns="http://www.w3.org/2000/svg" version="1.1" width="200px" height="100px" style="shape-rendering:geometricPrecision; text-rendering:geometricPrecision; image-rendering:optimizeQuality; fill-rule:evenodd; clip-rule:evenodd" xmlns:xlink="http://www.w3.org/1999/xlink">
<g><path style="opacity:0.998" fill="#fefefe" d="M 4.5,-0.5 C 67.8333,-0.5 131.167,-0.5 194.5,-0.5C 196.167,1.16667 197.833,2.83333 199.5,4.5C 199.5,34.5 199.5,64.5 199.5,94.5C 197.833,96.1667 196.167,97.8333 194.5,99.5C 131.167,99.5 67.8333,99.5 4.5,99.5C 2.83333,97.8333 1.16667,96.1667 -0.5,94.5C -0.5,64.5 -0.5,34.5 -0.5,4.5C 1.16667,2.83333 2.83333,1.16667 4.5,-0.5 Z"/></g>
<g><path style="opacity:1" fill="#982b96" d="M 63.5,9.5 C 74.1819,8.23673 83.3486,11.2367 91,18.5C 93.2702,22.9301 93.9369,27.5967 93,32.5C 90.1069,41.3417 87.9402,50.3417 86.5,59.5C 86.5069,62.5917 87.0069,65.5917 88,68.5C 91.1612,72.6579 93.6612,77.1579 95.5,82C 94.442,86.0522 91.7753,88.3856 87.5,89C 77.0005,89.1706 68.1671,85.3372 61,77.5C 58.5687,71.0513 57.9021,64.3846 59,57.5C 61.9463,49.7277 63.2797,41.7277 63,33.5C 60.0654,28.1355 57.5654,22.6355 55.5,17C 56.7309,12.9348 59.3976,10.4348 63.5,9.5 Z"/></g>
<g><path style="opacity:1" fill="#982b96" d="M 112.5,9.5 C 123.182,8.23673 132.349,11.2367 140,18.5C 142.27,22.9301 142.937,27.5967 142,32.5C 140.298,39.5743 138.298,46.5743 136,53.5C 135.333,57.8333 135.333,62.1667 136,66.5C 139.298,71.4511 142.131,76.6177 144.5,82C 143.442,86.0522 140.775,88.3856 136.5,89C 126,89.1706 117.167,85.3372 110,77.5C 107.569,71.0513 106.902,64.3846 108,57.5C 111.144,49.7835 112.477,41.7835 112,33.5C 109.065,28.1355 106.565,22.6355 104.5,17C 105.731,12.9348 108.398,10.4348 112.5,9.5 Z"/></g>
</svg>
