<?xml version="1.0" encoding="UTF-8"?>
<!DOCTYPE svg PUBLIC "-//W3C//DTD SVG 1.1//EN" "http://www.w3.org/Graphics/SVG/1.1/DTD/svg11.dtd">
<svg xmlns="http://www.w3.org/2000/svg" version="1.1" width="200px" height="100px" style="shape-rendering:geometricPrecision; text-rendering:geometricPrecision; image-rendering:optimizeQuality; fill-rule:evenodd; clip-rule:evenodd" xmlns:xlink="http://www.w3.org/1999/xlink">
<g><path style="opacity:0.998" fill="#fefdfe" d="M 4.5,-0.5 C 67.8333,-0.5 131.167,-0.5 194.5,-0.5C 196.167,1.16667 197.833,2.83333 199.5,4.5C 199.5,34.5 199.5,64.5 199.5,94.5C 197.833,96.1667 196.167,97.8333 194.5,99.5C 131.167,99.5 67.8333,99.5 4.5,99.5C 2.83333,97.8333 1.16667,96.1667 -0.5,94.5C -0.5,64.5 -0.5,34.5 -0.5,4.5C 1.16667,2.83333 2.83333,1.16667 4.5,-0.5 Z"/></g>
<g><path style="opacity:1" fill="#9f3b9d" d="M 38.5,9.5 C 49.1819,8.23673 58.3486,11.2367 66,18.5C 68.2702,22.9301 68.9369,27.5967 68,32.5C 65.1069,41.3417 62.9402,50.3417 61.5,59.5C 61.5069,62.5917 62.0069,65.5917 63,68.5C 66.1612,72.6579 68.6612,77.1579 70.5,82C 69.442,86.0522 66.7753,88.3856 62.5,89C 52.0005,89.1706 43.1671,85.3372 36,77.5C 33.5687,71.0513 32.9021,64.3846 34,57.5C 36.9463,49.7277 38.2797,41.7277 38,33.5C 35.0654,28.1355 32.5654,22.6355 30.5,17C 31.7309,12.9348 34.3976,10.4348 38.5,9.5 Z"/></g>
<g><path style="opacity:1" fill="#a03c9d" d="M 87.5,9.5 C 98.1819,8.23673 107.349,11.2367 115,18.5C 117.27,22.9301 117.937,27.5967 117,32.5C 114.111,41.331 111.945,50.331 110.5,59.5C 110.507,62.5917 111.007,65.5917 112,68.5C 115.161,72.6579 117.661,77.1579 119.5,82C 118.442,86.0522 115.775,88.3856 111.5,89C 101,89.1706 92.1671,85.3372 85,77.5C 82.5687,71.0513 81.9021,64.3846 83,57.5C 86.1465,49.7721 87.4799,41.7721 87,33.5C 84.0654,28.1355 81.5654,22.6355 79.5,17C 80.7309,12.9348 83.3976,10.4348 87.5,9.5 Z"/></g>
<g><path style="opacity:1" fill="#a03d9e" d="M 136.5,9.5 C 147.182,8.23673 156.349,11.2367 164,18.5C 166.27,22.9301 166.937,27.5967 166,32.5C 163.314,41.0541 161.147,49.7208 159.5,58.5C 159.676,61.8818 160.176,65.2152 161,68.5C 164.161,72.6579 166.661,77.1579 168.5,82C 167.442,86.0522 164.775,88.3856 160.5,89C 150,89.1706 141.167,85.3372 134,77.5C 131.569,71.0513 130.902,64.3846 132,57.5C 134.245,51.1745 135.745,44.6745 136.5,38C 136.333,36.5 136.167,35 136,33.5C 133.065,28.1355 130.565,22.6355 128.5,17C 129.731,12.9348 132.398,10.4348 136.5,9.5 Z"/></g>
<g><path style="opacity:1" fill="#fdfbfd" d="M 38.5,12.5 C 46.2024,12.2737 53.5357,13.7737 60.5,17C 65.0869,21.2277 66.5869,26.3943 65,32.5C 62.1995,41.0353 60.0328,49.7019 58.5,58.5C 58.5611,61.9026 59.0611,65.2359 60,68.5C 62.5165,73.01 65.0165,77.51 67.5,82C 66.8464,83.987 65.513,85.3203 63.5,86C 54.0278,86.3526 45.8612,83.1859 39,76.5C 36.5399,70.7547 35.8732,64.7547 37,58.5C 38.8201,51.888 40.3201,45.2213 41.5,38.5C 41.458,35.7414 40.958,33.0747 40,30.5C 37.5909,26.2662 35.4242,21.9329 33.5,17.5C 33.6667,16.8333 33.8333,16.1667 34,15.5C 35.6516,14.6006 37.1516,13.6006 38.5,12.5 Z"/></g>
<g><path style="opacity:1" fill="#fdfbfd" d="M 87.5,12.5 C 95.2024,12.2737 102.536,13.7737 109.5,17C 114.087,21.2277 115.587,26.3943 114,32.5C 111.039,41.3415 108.873,50.3415 107.5,59.5C 107.667,61.8333 107.833,64.1667 108,66.5C 110.445,71.8914 113.279,77.058 116.5,82C 116.241,83.2613 115.574,84.2613 114.5,85C 110.148,86.8947 105.815,86.8947 101.5,85C 97.6733,83.254 94.0066,81.254 90.5,79C 88.3834,77.2691 86.8834,75.1024 86,72.5C 85.3333,67.8333 85.3333,63.1667 86,58.5C 87.9755,51.5984 89.4755,44.5984 90.5,37.5C 90.4057,35.0772 89.9057,32.7438 89,30.5C 86.5909,26.2662 84.4242,21.9329 82.5,17.5C 82.6667,16.8333 82.8333,16.1667 83,15.5C 84.6516,14.6006 86.1516,13.6006 87.5,12.5 Z"/></g>
<g><path style="opacity:1" fill="#fdfbfd" d="M 136.5,12.5 C 144.202,12.2737 151.536,13.7737 158.5,17C 163.087,21.2277 164.587,26.3943 163,32.5C 160.039,41.3415 157.873,50.3415 156.5,59.5C 156.667,61.8333 156.833,64.1667 157,66.5C 159.445,71.8914 162.279,77.058 165.5,82C 165.241,83.2613 164.574,84.2613 163.5,85C 159.148,86.8947 154.815,86.8947 150.5,85C 146.673,83.254 143.007,81.254 139.5,79C 137.383,77.2691 135.883,75.1024 135,72.5C 134.333,67.8333 134.333,63.1667 135,58.5C 136.897,51.7459 138.397,44.9126 139.5,38C 139.435,35.4088 138.935,32.9088 138,30.5C 135.375,26.2122 133.209,21.7122 131.5,17C 132.761,15.0382 134.428,13.5382 136.5,12.5 Z"/></g>
</svg>
