<?xml version="1.0" encoding="UTF-8"?>
<!DOCTYPE svg PUBLIC "-//W3C//DTD SVG 1.1//EN" "http://www.w3.org/Graphics/SVG/1.1/DTD/svg11.dtd">
<svg xmlns="http://www.w3.org/2000/svg" version="1.1" width="200px" height="100px" style="shape-rendering:geometricPrecision; text-rendering:geometricPrecision; image-rendering:optimizeQuality; fill-rule:evenodd; clip-rule:evenodd" xmlns:xlink="http://www.w3.org/1999/xlink">
<g><path style="opacity:0.998" fill="#fefefe" d="M 4.5,-0.5 C 67.8333,-0.5 131.167,-0.5 194.5,-0.5C 196.167,1.16667 197.833,2.83333 199.5,4.5C 199.5,34.5 199.5,64.5 199.5,94.5C 197.833,96.1667 196.167,97.8333 194.5,99.5C 131.167,99.5 67.8333,99.5 4.5,99.5C 2.83333,97.8333 1.16667,96.1667 -0.5,94.5C -0.5,64.5 -0.5,34.5 -0.5,4.5C 1.16667,2.83333 2.83333,1.16667 4.5,-0.5 Z"/></g>
<g><path style="opacity:1" fill="#a13e9e" d="M 52.5,9.5 C 53.3764,9.36912 54.0431,9.70245 54.5,10.5C 60.8333,23.1667 67.1667,35.8333 73.5,48.5C 67.0887,61.6564 60.422,74.6564 53.5,87.5C 46.578,74.6564 39.9113,61.6564 33.5,48.5C 40.1167,35.6006 46.4501,22.6006 52.5,9.5 Z"/></g>
<g><path style="opacity:1" fill="#a13e9e" d="M 98.5,9.5 C 99.3764,9.36912 100.043,9.70245 100.5,10.5C 106.833,23.1667 113.167,35.8333 119.5,48.5C 113.089,61.6564 106.422,74.6564 99.5,87.5C 92.578,74.6564 85.9113,61.6564 79.5,48.5C 86.1167,35.6006 92.4501,22.6006 98.5,9.5 Z"/></g>
<g><path style="opacity:1" fill="#a13e9e" d="M 144.5,9.5 C 145.376,9.36912 146.043,9.70245 146.5,10.5C 152.833,23.1667 159.167,35.8333 165.5,48.5C 159.089,61.6564 152.422,74.6564 145.5,87.5C 138.578,74.6564 131.911,61.6564 125.5,48.5C 132.117,35.6006 138.45,22.6006 144.5,9.5 Z"/></g>
<g><path style="opacity:1" fill="#fefdfe" d="M 52.5,16.5 C 59.1446,26.4459 64.8112,37.1126 69.5,48.5C 64.6965,59.4403 59.3632,70.107 53.5,80.5C 47.6368,70.107 42.3035,59.4403 37.5,48.5C 42.5089,37.8167 47.5089,27.15 52.5,16.5 Z"/></g>
<g><path style="opacity:1" fill="#fefdfe" d="M 98.5,16.5 C 105.145,26.4459 110.811,37.1126 115.5,48.5C 110.696,59.4403 105.363,70.107 99.5,80.5C 93.6368,70.107 88.3035,59.4403 83.5,48.5C 88.5089,37.8167 93.5089,27.15 98.5,16.5 Z"/></g>
<g><path style="opacity:1" fill="#fefdfe" d="M 144.5,16.5 C 151.145,26.4459 156.811,37.1126 161.5,48.5C 156.696,59.4403 151.363,70.107 145.5,80.5C 139.637,70.107 134.304,59.4403 129.5,48.5C 134.509,37.8167 139.509,27.15 144.5,16.5 Z"/></g>
</svg>
