<?xml version="1.0" encoding="UTF-8"?>
<!DOCTYPE svg PUBLIC "-//W3C//DTD SVG 1.1//EN" "http://www.w3.org/Graphics/SVG/1.1/DTD/svg11.dtd">
<svg xmlns="http://www.w3.org/2000/svg" version="1.1" width="200px" height="100px" style="shape-rendering:geometricPrecision; text-rendering:geometricPrecision; image-rendering:optimizeQuality; fill-rule:evenodd; clip-rule:evenodd" xmlns:xlink="http://www.w3.org/1999/xlink">
<g><path style="opacity:0.998" fill="#fefefe" d="M 4.5,-0.5 C 67.8333,-0.5 131.167,-0.5 194.5,-0.5C 196.167,1.16667 197.833,2.83333 199.5,4.5C 199.5,34.5 199.5,64.5 199.5,94.5C 197.833,96.1667 196.167,97.8333 194.5,99.5C 131.167,99.5 67.8333,99.5 4.5,99.5C 2.83333,97.8333 1.16667,96.1667 -0.5,94.5C -0.5,64.5 -0.5,34.5 -0.5,4.5C 1.16667,2.83333 2.83333,1.16667 4.5,-0.5 Z"/></g>
<g><path style="opacity:1" fill="#c381be" d="M 69.5,9.5 C 81.5599,7.89367 90.0599,12.5603 95,23.5C 95.6667,40.5 95.6667,57.5 95,74.5C 88.5915,89.1942 78.0915,93.0275 63.5,86C 60.1166,82.7308 57.6166,78.8974 56,74.5C 55.3333,57.5 55.3333,40.5 56,23.5C 58.6873,16.981 63.1873,12.3143 69.5,9.5 Z"/></g>
<g><path style="opacity:1" fill="#c381be" d="M 118.5,9.5 C 130.56,7.89367 139.06,12.5603 144,23.5C 144.667,40.5 144.667,57.5 144,74.5C 137.591,89.1942 127.091,93.0275 112.5,86C 109.117,82.7308 106.617,78.8974 105,74.5C 104.333,57.5 104.333,40.5 105,23.5C 107.687,16.981 112.187,12.3143 118.5,9.5 Z"/></g>
</svg>
