<?xml version="1.0" encoding="UTF-8"?>
<!DOCTYPE svg PUBLIC "-//W3C//DTD SVG 1.1//EN" "http://www.w3.org/Graphics/SVG/1.1/DTD/svg11.dtd">
<svg xmlns="http://www.w3.org/2000/svg" version="1.1" width="200px" height="100px" style="shape-rendering:geometricPrecision; text-rendering:geometricPrecision; image-rendering:optimizeQuality; fill-rule:evenodd; clip-rule:evenodd" xmlns:xlink="http://www.w3.org/1999/xlink">
<g><path style="opacity:0.998" fill="#fefdfe" d="M 4.5,-0.5 C 67.8333,-0.5 131.167,-0.5 194.5,-0.5C 196.167,1.16667 197.833,2.83333 199.5,4.5C 199.5,34.5 199.5,64.5 199.5,94.5C 197.833,96.1667 196.167,97.8333 194.5,99.5C 131.167,99.5 67.8333,99.5 4.5,99.5C 2.83333,97.8333 1.16667,96.1667 -0.5,94.5C -0.5,64.5 -0.5,34.5 -0.5,4.5C 1.16667,2.83333 2.83333,1.16667 4.5,-0.5 Z"/></g>
<g><path style="opacity:1" fill="#982b96" d="M 38.5,9.5 C 49.1819,8.23673 58.3486,11.2367 66,18.5C 68.2702,22.9301 68.9369,27.5967 68,32.5C 65.1115,41.331 62.9448,50.331 61.5,59.5C 61.5069,62.5917 62.0069,65.5917 63,68.5C 66.1612,72.6579 68.6612,77.1579 70.5,82C 69.442,86.0522 66.7753,88.3856 62.5,89C 52.0005,89.1706 43.1671,85.3372 36,77.5C 33.5687,71.0513 32.9021,64.3846 34,57.5C 36.9463,49.7277 38.2797,41.7277 38,33.5C 35.0654,28.1355 32.5654,22.6355 30.5,17C 31.7309,12.9348 34.3976,10.4348 38.5,9.5 Z"/></g>
<g><path style="opacity:1" fill="#982b96" d="M 87.5,9.5 C 98.1819,8.23673 107.349,11.2367 115,18.5C 117.27,22.9301 117.937,27.5967 117,32.5C 114.111,41.331 111.945,50.331 110.5,59.5C 110.507,62.5917 111.007,65.5917 112,68.5C 115.161,72.6579 117.661,77.1579 119.5,82C 118.442,86.0522 115.775,88.3856 111.5,89C 101,89.1706 92.1671,85.3372 85,77.5C 82.5687,71.0513 81.9021,64.3846 83,57.5C 86.1465,49.7721 87.4799,41.7721 87,33.5C 84.0654,28.1355 81.5654,22.6355 79.5,17C 80.7309,12.9348 83.3976,10.4348 87.5,9.5 Z"/></g>
<g><path style="opacity:1" fill="#982b96" d="M 136.5,9.5 C 147.182,8.23673 156.349,11.2367 164,18.5C 166.27,22.9301 166.937,27.5967 166,32.5C 164.298,39.5743 162.298,46.5743 160,53.5C 159.333,57.8333 159.333,62.1667 160,66.5C 163.298,71.4511 166.131,76.6177 168.5,82C 167.442,86.0522 164.775,88.3856 160.5,89C 150,89.1706 141.167,85.3372 134,77.5C 131.569,71.0513 130.902,64.3846 132,57.5C 135.144,49.7835 136.477,41.7835 136,33.5C 133.065,28.1355 130.565,22.6355 128.5,17C 129.731,12.9348 132.398,10.4348 136.5,9.5 Z"/></g>
</svg>
