<?xml version="1.0" encoding="UTF-8"?>
<!DOCTYPE svg PUBLIC "-//W3C//DTD SVG 1.1//EN" "http://www.w3.org/Graphics/SVG/1.1/DTD/svg11.dtd">
<svg xmlns="http://www.w3.org/2000/svg" version="1.1" width="200px" height="100px" style="shape-rendering:geometricPrecision; text-rendering:geometricPrecision; image-rendering:optimizeQuality; fill-rule:evenodd; clip-rule:evenodd" xmlns:xlink="http://www.w3.org/1999/xlink">
<g><path style="opacity:0.998" fill="#fefefe" d="M 4.5,-0.5 C 67.8333,-0.5 131.167,-0.5 194.5,-0.5C 196.167,1.16667 197.833,2.83333 199.5,4.5C 199.5,34.5 199.5,64.5 199.5,94.5C 197.833,96.1667 196.167,97.8333 194.5,99.5C 131.167,99.5 67.8333,99.5 4.5,99.5C 2.83333,97.8333 1.16667,96.1667 -0.5,94.5C -0.5,64.5 -0.5,34.5 -0.5,4.5C 1.16667,2.83333 2.83333,1.16667 4.5,-0.5 Z"/></g>
<g><path style="opacity:1" fill="#9f3b9d" d="M 63.5,9.5 C 74.1819,8.23673 83.3486,11.2367 91,18.5C 93.2702,22.9301 93.9369,27.5967 93,32.5C 90.1069,41.3417 87.9402,50.3417 86.5,59.5C 86.5069,62.5917 87.0069,65.5917 88,68.5C 91.1612,72.6579 93.6612,77.1579 95.5,82C 94.442,86.0522 91.7753,88.3856 87.5,89C 77.0005,89.1706 68.1671,85.3372 61,77.5C 58.5687,71.0513 57.9021,64.3846 59,57.5C 61.9463,49.7277 63.2797,41.7277 63,33.5C 60.0654,28.1355 57.5654,22.6355 55.5,17C 56.7309,12.9348 59.3976,10.4348 63.5,9.5 Z"/></g>
<g><path style="opacity:1" fill="#a03d9e" d="M 112.5,9.5 C 123.182,8.23673 132.349,11.2367 140,18.5C 142.27,22.9301 142.937,27.5967 142,32.5C 139.32,41.0387 137.154,49.7054 135.5,58.5C 135.676,61.8818 136.176,65.2152 137,68.5C 140.161,72.6579 142.661,77.1579 144.5,82C 143.442,86.0522 140.775,88.3856 136.5,89C 126,89.1706 117.167,85.3372 110,77.5C 107.569,71.0513 106.902,64.3846 108,57.5C 110.245,51.1745 111.745,44.6745 112.5,38C 112.333,36.5 112.167,35 112,33.5C 109.065,28.1355 106.565,22.6355 104.5,17C 105.731,12.9348 108.398,10.4348 112.5,9.5 Z"/></g>
<g><path style="opacity:1" fill="#fdfbfd" d="M 63.5,12.5 C 71.2024,12.2737 78.5357,13.7737 85.5,17C 90.0869,21.2277 91.5869,26.3943 90,32.5C 87.0393,41.3415 84.8727,50.3415 83.5,59.5C 83.6667,61.8333 83.8333,64.1667 84,66.5C 86.4597,71.9232 89.293,77.0898 92.5,82C 91.8464,83.987 90.513,85.3203 88.5,86C 79.0278,86.3526 70.8612,83.1859 64,76.5C 61.5399,70.7547 60.8732,64.7547 62,58.5C 63.8201,51.888 65.3201,45.2213 66.5,38.5C 66.458,35.7414 65.958,33.0747 65,30.5C 62.5909,26.2662 60.4242,21.9329 58.5,17.5C 58.6667,16.8333 58.8333,16.1667 59,15.5C 60.6516,14.6006 62.1516,13.6006 63.5,12.5 Z"/></g>
<g><path style="opacity:1" fill="#fdfbfd" d="M 112.5,12.5 C 120.202,12.2737 127.536,13.7737 134.5,17C 139.087,21.2277 140.587,26.3943 139,32.5C 136.039,41.3415 133.873,50.3415 132.5,59.5C 132.667,61.8333 132.833,64.1667 133,66.5C 135.445,71.8914 138.279,77.058 141.5,82C 141.241,83.2613 140.574,84.2613 139.5,85C 135.148,86.8947 130.815,86.8947 126.5,85C 122.673,83.254 119.007,81.254 115.5,79C 113.383,77.2691 111.883,75.1024 111,72.5C 110.333,67.8333 110.333,63.1667 111,58.5C 112.976,51.5984 114.476,44.5984 115.5,37.5C 115.406,35.0772 114.906,32.7438 114,30.5C 111.375,26.2122 109.209,21.7122 107.5,17C 108.761,15.0382 110.428,13.5382 112.5,12.5 Z"/></g>
</svg>
