<?xml version="1.0" encoding="UTF-8"?>
<!DOCTYPE svg PUBLIC "-//W3C//DTD SVG 1.1//EN" "http://www.w3.org/Graphics/SVG/1.1/DTD/svg11.dtd">
<svg xmlns="http://www.w3.org/2000/svg" version="1.1" width="200px" height="100px" style="shape-rendering:geometricPrecision; text-rendering:geometricPrecision; image-rendering:optimizeQuality; fill-rule:evenodd; clip-rule:evenodd" xmlns:xlink="http://www.w3.org/1999/xlink">
<g><path style="opacity:0.998" fill="#fefefe" d="M 4.5,-0.5 C 67.8333,-0.5 131.167,-0.5 194.5,-0.5C 196.167,1.16667 197.833,2.83333 199.5,4.5C 199.5,34.5 199.5,64.5 199.5,94.5C 197.833,96.1667 196.167,97.8333 194.5,99.5C 131.167,99.5 67.8333,99.5 4.5,99.5C 2.83333,97.8333 1.16667,96.1667 -0.5,94.5C -0.5,64.5 -0.5,34.5 -0.5,4.5C 1.16667,2.83333 2.83333,1.16667 4.5,-0.5 Z"/></g>
<g><path style="opacity:1" fill="#c07cbb" d="M 37.5,9.5 C 46.9425,8.36149 55.6092,10.3615 63.5,15.5C 67.9473,20.3483 69.4473,26.015 68,32.5C 65.7471,41.3443 63.5805,50.1776 61.5,59C 61.6368,61.898 62.1368,64.7314 63,67.5C 65.9682,72.1229 68.4682,76.9562 70.5,82C 68.6501,87.6646 64.6501,90.1646 58.5,89.5C 46.3915,87.8777 37.8915,81.5443 33,70.5C 32.5752,66.1305 32.9085,61.7972 34,57.5C 35.7374,51.0506 37.2374,44.5506 38.5,38C 36.5135,30.8668 33.8468,24.0334 30.5,17.5C 31.4106,13.5894 33.7439,10.9227 37.5,9.5 Z"/></g>
<g><path style="opacity:1" fill="#c07cbb" d="M 86.5,9.5 C 98.1689,7.86466 108.002,11.198 116,19.5C 117.363,23.7612 117.696,28.0946 117,32.5C 114.747,41.3443 112.58,50.1776 110.5,59C 110.637,61.898 111.137,64.7314 112,67.5C 114.968,72.1229 117.468,76.9562 119.5,82C 117.65,87.6646 113.65,90.1646 107.5,89.5C 95.3915,87.8777 86.8915,81.5443 82,70.5C 81.5752,66.1305 81.9085,61.7972 83,57.5C 84.7374,51.0506 86.2374,44.5506 87.5,38C 85.5135,30.8668 82.8468,24.0334 79.5,17.5C 80.4106,13.5894 82.7439,10.9227 86.5,9.5 Z"/></g>
<g><path style="opacity:1" fill="#c07cbb" d="M 135.5,9.5 C 143.973,8.59816 151.973,10.0982 159.5,14C 165.437,18.811 167.604,24.9777 166,32.5C 163.747,41.3443 161.58,50.1776 159.5,59C 159.637,61.898 160.137,64.7314 161,67.5C 163.968,72.1229 166.468,76.9562 168.5,82C 166.65,87.6646 162.65,90.1646 156.5,89.5C 144.392,87.8777 135.892,81.5443 131,70.5C 130.575,66.1305 130.908,61.7972 132,57.5C 133.737,51.0506 135.237,44.5506 136.5,38C 134.513,30.8668 131.847,24.0334 128.5,17.5C 129.411,13.5894 131.744,10.9227 135.5,9.5 Z"/></g>
</svg>
