<?xml version="1.0" encoding="UTF-8"?>
<!DOCTYPE svg PUBLIC "-//W3C//DTD SVG 1.1//EN" "http://www.w3.org/Graphics/SVG/1.1/DTD/svg11.dtd">
<svg xmlns="http://www.w3.org/2000/svg" version="1.1" width="200px" height="100px" style="shape-rendering:geometricPrecision; text-rendering:geometricPrecision; image-rendering:optimizeQuality; fill-rule:evenodd; clip-rule:evenodd" xmlns:xlink="http://www.w3.org/1999/xlink">
<g><path style="opacity:0.998" fill="#fefefe" d="M 4.5,-0.5 C 67.8333,-0.5 131.167,-0.5 194.5,-0.5C 196.167,1.16667 197.833,2.83333 199.5,4.5C 199.5,34.5 199.5,64.5 199.5,94.5C 197.833,96.1667 196.167,97.8333 194.5,99.5C 131.167,99.5 67.8333,99.5 4.5,99.5C 2.83333,97.8333 1.16667,96.1667 -0.5,94.5C -0.5,64.5 -0.5,34.5 -0.5,4.5C 1.16667,2.83333 2.83333,1.16667 4.5,-0.5 Z"/></g>
<g><path style="opacity:1" fill="#a03c9d" d="M 87.5,9.5 C 98.1819,8.23673 107.349,11.2367 115,18.5C 117.27,22.9301 117.937,27.5967 117,32.5C 114.111,41.331 111.945,50.331 110.5,59.5C 110.507,62.5917 111.007,65.5917 112,68.5C 115.161,72.6579 117.661,77.1579 119.5,82C 118.442,86.0522 115.775,88.3856 111.5,89C 101,89.1706 92.1671,85.3372 85,77.5C 82.5687,71.0513 81.9021,64.3846 83,57.5C 86.1465,49.7721 87.4799,41.7721 87,33.5C 84.0654,28.1355 81.5654,22.6355 79.5,17C 80.7309,12.9348 83.3976,10.4348 87.5,9.5 Z"/></g>
<g><path style="opacity:1" fill="#fdfbfd" d="M 87.5,12.5 C 95.2024,12.2737 102.536,13.7737 109.5,17C 114.087,21.2277 115.587,26.3943 114,32.5C 111.039,41.3415 108.873,50.3415 107.5,59.5C 107.667,61.8333 107.833,64.1667 108,66.5C 110.445,71.8914 113.279,77.058 116.5,82C 116.241,83.2613 115.574,84.2613 114.5,85C 110.148,86.8947 105.815,86.8947 101.5,85C 97.6733,83.254 94.0066,81.254 90.5,79C 88.3834,77.2691 86.8834,75.1024 86,72.5C 85.3333,67.8333 85.3333,63.1667 86,58.5C 87.8201,51.888 89.3201,45.2213 90.5,38.5C 90.458,35.7414 89.958,33.0747 89,30.5C 86.5909,26.2662 84.4242,21.9329 82.5,17.5C 82.6667,16.8333 82.8333,16.1667 83,15.5C 84.6516,14.6006 86.1516,13.6006 87.5,12.5 Z"/></g>
</svg>
