<?xml version="1.0" encoding="UTF-8"?>
<!DOCTYPE svg PUBLIC "-//W3C//DTD SVG 1.1//EN" "http://www.w3.org/Graphics/SVG/1.1/DTD/svg11.dtd">
<svg xmlns="http://www.w3.org/2000/svg" version="1.1" width="200px" height="100px" style="shape-rendering:geometricPrecision; text-rendering:geometricPrecision; image-rendering:optimizeQuality; fill-rule:evenodd; clip-rule:evenodd" xmlns:xlink="http://www.w3.org/1999/xlink">
<g><path style="opacity:0.998" fill="#fefefe" d="M 4.5,-0.5 C 67.8333,-0.5 131.167,-0.5 194.5,-0.5C 196.167,1.16667 197.833,2.83333 199.5,4.5C 199.5,34.5 199.5,64.5 199.5,94.5C 197.833,96.1667 196.167,97.8333 194.5,99.5C 131.167,99.5 67.8333,99.5 4.5,99.5C 2.83333,97.8333 1.16667,96.1667 -0.5,94.5C -0.5,64.5 -0.5,34.5 -0.5,4.5C 1.16667,2.83333 2.83333,1.16667 4.5,-0.5 Z"/></g>
<g><path style="opacity:1" fill="#972995" d="M 70.5,9.5 C 82.6522,8.17668 90.8188,13.1767 95,24.5C 95.6667,41.1667 95.6667,57.8333 95,74.5C 88.0595,89.8131 77.2262,93.3131 62.5,85C 59.5095,82.0096 57.3428,78.5096 56,74.5C 55.3333,57.8333 55.3333,41.1667 56,24.5C 58.3509,16.9841 63.1842,11.9841 70.5,9.5 Z"/></g>
<g><path style="opacity:1" fill="#972995" d="M 119.5,9.5 C 131.652,8.17668 139.819,13.1767 144,24.5C 144.667,41.1667 144.667,57.8333 144,74.5C 137.06,89.8131 126.226,93.3131 111.5,85C 108.509,82.0096 106.343,78.5096 105,74.5C 104.333,57.8333 104.333,41.1667 105,24.5C 107.351,16.9841 112.184,11.9841 119.5,9.5 Z"/></g>
</svg>
