<?xml version="1.0" encoding="UTF-8"?>
<!DOCTYPE svg PUBLIC "-//W3C//DTD SVG 1.1//EN" "http://www.w3.org/Graphics/SVG/1.1/DTD/svg11.dtd">
<svg xmlns="http://www.w3.org/2000/svg" version="1.1" width="200px" height="100px" style="shape-rendering:geometricPrecision; text-rendering:geometricPrecision; image-rendering:optimizeQuality; fill-rule:evenodd; clip-rule:evenodd" xmlns:xlink="http://www.w3.org/1999/xlink">
<g><path style="opacity:0.998" fill="#fffefe" d="M 4.5,-0.5 C 67.8333,-0.5 131.167,-0.5 194.5,-0.5C 196.167,1.16667 197.833,2.83333 199.5,4.5C 199.5,34.5 199.5,64.5 199.5,94.5C 197.833,96.1667 196.167,97.8333 194.5,99.5C 131.167,99.5 67.8333,99.5 4.5,99.5C 2.83333,97.8333 1.16667,96.1667 -0.5,94.5C -0.5,64.5 -0.5,34.5 -0.5,4.5C 1.16667,2.83333 2.83333,1.16667 4.5,-0.5 Z"/></g>
<g><path style="opacity:1" fill="#fe8981" d="M 74.5,9.5 C 75.3764,9.36912 76.0431,9.70245 76.5,10.5C 82.8333,23.1667 89.1667,35.8333 95.5,48.5C 89.0887,61.6564 82.422,74.6564 75.5,87.5C 68.578,74.6564 61.9113,61.6564 55.5,48.5C 62.1167,35.6006 68.4501,22.6006 74.5,9.5 Z"/></g>
<g><path style="opacity:1" fill="#fe8981" d="M 122.5,9.5 C 123.376,9.36912 124.043,9.70245 124.5,10.5C 130.833,23.1667 137.167,35.8333 143.5,48.5C 137.089,61.6564 130.422,74.6564 123.5,87.5C 116.578,74.6564 109.911,61.6564 103.5,48.5C 110.117,35.6006 116.45,22.6006 122.5,9.5 Z"/></g>
</svg>
