<?xml version="1.0" encoding="UTF-8"?>
<!DOCTYPE svg PUBLIC "-//W3C//DTD SVG 1.1//EN" "http://www.w3.org/Graphics/SVG/1.1/DTD/svg11.dtd">
<svg xmlns="http://www.w3.org/2000/svg" version="1.1" width="200px" height="100px" style="shape-rendering:geometricPrecision; text-rendering:geometricPrecision; image-rendering:optimizeQuality; fill-rule:evenodd; clip-rule:evenodd" xmlns:xlink="http://www.w3.org/1999/xlink">
<g><path style="opacity:0.998" fill="#fffdfd" d="M 4.5,-0.5 C 67.8333,-0.5 131.167,-0.5 194.5,-0.5C 196.167,1.16667 197.833,2.83333 199.5,4.5C 199.5,34.5 199.5,64.5 199.5,94.5C 197.833,96.1667 196.167,97.8333 194.5,99.5C 131.167,99.5 67.8333,99.5 4.5,99.5C 2.83333,97.8333 1.16667,96.1667 -0.5,94.5C -0.5,64.5 -0.5,34.5 -0.5,4.5C 1.16667,2.83333 2.83333,1.16667 4.5,-0.5 Z"/></g>
<g><path style="opacity:1" fill="#fe8981" d="M 50.5,9.5 C 51.3764,9.36912 52.0431,9.70245 52.5,10.5C 58.8333,23.1667 65.1667,35.8333 71.5,48.5C 65.0887,61.6564 58.422,74.6564 51.5,87.5C 44.578,74.6564 37.9113,61.6564 31.5,48.5C 38.1167,35.6006 44.4501,22.6006 50.5,9.5 Z"/></g>
<g><path style="opacity:1" fill="#fe8981" d="M 98.5,9.5 C 99.3764,9.36912 100.043,9.70245 100.5,10.5C 106.833,23.1667 113.167,35.8333 119.5,48.5C 113.089,61.6564 106.422,74.6564 99.5,87.5C 92.578,74.6564 85.9113,61.6564 79.5,48.5C 86.1167,35.6006 92.4501,22.6006 98.5,9.5 Z"/></g>
<g><path style="opacity:1" fill="#fe8981" d="M 146.5,9.5 C 147.376,9.36912 148.043,9.70245 148.5,10.5C 154.833,23.1667 161.167,35.8333 167.5,48.5C 161.089,61.6564 154.422,74.6564 147.5,87.5C 140.578,74.6564 133.911,61.6564 127.5,48.5C 134.117,35.6006 140.45,22.6006 146.5,9.5 Z"/></g>
</svg>
