<?xml version="1.0" encoding="UTF-8"?>
<!DOCTYPE svg PUBLIC "-//W3C//DTD SVG 1.1//EN" "http://www.w3.org/Graphics/SVG/1.1/DTD/svg11.dtd">
<svg xmlns="http://www.w3.org/2000/svg" version="1.1" width="200px" height="100px" style="shape-rendering:geometricPrecision; text-rendering:geometricPrecision; image-rendering:optimizeQuality; fill-rule:evenodd; clip-rule:evenodd" xmlns:xlink="http://www.w3.org/1999/xlink">
<g><path style="opacity:0.998" fill="#fefefe" d="M 4.5,-0.5 C 67.8333,-0.5 131.167,-0.5 194.5,-0.5C 196.167,1.16667 197.833,2.83333 199.5,4.5C 199.5,34.5 199.5,64.5 199.5,94.5C 197.833,96.1667 196.167,97.8333 194.5,99.5C 131.167,99.5 67.8333,99.5 4.5,99.5C 2.83333,97.8333 1.16667,96.1667 -0.5,94.5C -0.5,64.5 -0.5,34.5 -0.5,4.5C 1.16667,2.83333 2.83333,1.16667 4.5,-0.5 Z"/></g>
<g><path style="opacity:1" fill="#ef4047" d="M 75.5,9.5 C 76.3764,9.36912 77.0431,9.70245 77.5,10.5C 83.8333,23.1667 90.1667,35.8333 96.5,48.5C 90.0887,61.6564 83.422,74.6564 76.5,87.5C 69.578,74.6564 62.9113,61.6564 56.5,48.5C 63.1167,35.6006 69.4501,22.6006 75.5,9.5 Z"/></g>
<g><path style="opacity:1" fill="#ef4047" d="M 121.5,9.5 C 122.376,9.36912 123.043,9.70245 123.5,10.5C 129.833,23.1667 136.167,35.8333 142.5,48.5C 136.089,61.6564 129.422,74.6564 122.5,87.5C 115.578,74.6564 108.911,61.6564 102.5,48.5C 109.117,35.6006 115.45,22.6006 121.5,9.5 Z"/></g>
</svg>
