<?xml version="1.0" encoding="UTF-8"?>
<!DOCTYPE svg PUBLIC "-//W3C//DTD SVG 1.1//EN" "http://www.w3.org/Graphics/SVG/1.1/DTD/svg11.dtd">
<svg xmlns="http://www.w3.org/2000/svg" version="1.1" width="200px" height="100px" style="shape-rendering:geometricPrecision; text-rendering:geometricPrecision; image-rendering:optimizeQuality; fill-rule:evenodd; clip-rule:evenodd" xmlns:xlink="http://www.w3.org/1999/xlink">
<g><path style="opacity:0.998" fill="#fffefe" d="M 4.5,-0.5 C 67.8333,-0.5 131.167,-0.5 194.5,-0.5C 196.167,1.16667 197.833,2.83333 199.5,4.5C 199.5,34.5 199.5,64.5 199.5,94.5C 197.833,96.1667 196.167,97.8333 194.5,99.5C 131.167,99.5 67.8333,99.5 4.5,99.5C 2.83333,97.8333 1.16667,96.1667 -0.5,94.5C -0.5,64.5 -0.5,34.5 -0.5,4.5C 1.16667,2.83333 2.83333,1.16667 4.5,-0.5 Z"/></g>
<g><path style="opacity:1" fill="#f14f52" d="M 87.5,9.5 C 98.1819,8.23673 107.349,11.2367 115,18.5C 117.27,22.9301 117.937,27.5967 117,32.5C 114.007,41.4778 111.84,50.6445 110.5,60C 110.667,62.1667 110.833,64.3333 111,66.5C 114.072,71.395 116.905,76.395 119.5,81.5C 118.737,85.431 116.403,87.931 112.5,89C 101.598,89.4697 92.4313,85.6364 85,77.5C 82.5687,71.0513 81.9021,64.3846 83,57.5C 85.9463,49.7277 87.2797,41.7277 87,33.5C 84.0822,28.1661 81.5822,22.6661 79.5,17C 79.4393,15.2894 80.1059,13.956 81.5,13C 83.4319,11.5415 85.4319,10.3748 87.5,9.5 Z"/></g>
<g><path style="opacity:1" fill="#fffbfb" d="M 87.5,12.5 C 95.2024,12.2737 102.536,13.7737 109.5,17C 114.087,21.2277 115.587,26.3943 114,32.5C 111.309,41.065 109.143,49.7317 107.5,58.5C 107.561,61.9026 108.061,65.2359 109,68.5C 111.516,73.01 114.016,77.51 116.5,82C 114.686,85.1776 111.853,86.6776 108,86.5C 102.138,85.3212 96.6376,83.1546 91.5,80C 88.8941,78.0616 87.0608,75.5616 86,72.5C 85.3333,67.8333 85.3333,63.1667 86,58.5C 87.8971,51.7459 89.3971,44.9126 90.5,38C 90.4347,35.4088 89.9347,32.9088 89,30.5C 86.5909,26.2662 84.4242,21.9329 82.5,17.5C 82.6667,16.8333 82.8333,16.1667 83,15.5C 84.6516,14.6006 86.1516,13.6006 87.5,12.5 Z"/></g>
</svg>
