<?xml version="1.0" encoding="UTF-8"?>
<!DOCTYPE svg PUBLIC "-//W3C//DTD SVG 1.1//EN" "http://www.w3.org/Graphics/SVG/1.1/DTD/svg11.dtd">
<svg xmlns="http://www.w3.org/2000/svg" version="1.1" width="200px" height="100px" style="shape-rendering:geometricPrecision; text-rendering:geometricPrecision; image-rendering:optimizeQuality; fill-rule:evenodd; clip-rule:evenodd" xmlns:xlink="http://www.w3.org/1999/xlink">
<g><path style="opacity:0.998" fill="#fefefe" d="M 4.5,-0.5 C 67.8333,-0.5 131.167,-0.5 194.5,-0.5C 196.167,1.16667 197.833,2.83333 199.5,4.5C 199.5,34.5 199.5,64.5 199.5,94.5C 197.833,96.1667 196.167,97.8333 194.5,99.5C 131.167,99.5 67.8333,99.5 4.5,99.5C 2.83333,97.8333 1.16667,96.1667 -0.5,94.5C -0.5,64.5 -0.5,34.5 -0.5,4.5C 1.16667,2.83333 2.83333,1.16667 4.5,-0.5 Z"/></g>
<g><path style="opacity:1" fill="#ff8d85" d="M 37.5,9.5 C 45.9734,8.59816 53.9734,10.0982 61.5,14C 67.4374,18.811 69.6041,24.9777 68,32.5C 65.7471,41.3443 63.5805,50.1776 61.5,59C 61.6368,61.898 62.1368,64.7314 63,67.5C 65.9682,72.1229 68.4682,76.9562 70.5,82C 70.01,84.5028 68.6766,86.5028 66.5,88C 54.4329,90.3988 44.2662,86.8988 36,77.5C 32.1445,71.1726 31.4778,64.5059 34,57.5C 36.3632,51.2127 37.8632,44.7127 38.5,38C 36.656,30.9824 33.9893,24.3157 30.5,18C 31.2271,13.7787 33.5605,10.9453 37.5,9.5 Z"/></g>
<g><path style="opacity:1" fill="#ff8d85" d="M 86.5,9.5 C 94.9734,8.59816 102.973,10.0982 110.5,14C 116.437,18.811 118.604,24.9777 117,32.5C 114.588,41.6477 112.421,50.8144 110.5,60C 110.667,61.8333 110.833,63.6667 111,65.5C 113.898,71.0376 116.731,76.5376 119.5,82C 117.811,87.5855 113.977,90.0855 108,89.5C 95.6247,88.1103 86.958,81.777 82,70.5C 81.5752,66.1305 81.9085,61.7972 83,57.5C 85.2436,51.1769 86.7436,44.6769 87.5,38C 85.656,30.9824 82.9893,24.3157 79.5,18C 80.2271,13.7787 82.5605,10.9453 86.5,9.5 Z"/></g>
<g><path style="opacity:1" fill="#ff8d85" d="M 135.5,9.5 C 143.973,8.59816 151.973,10.0982 159.5,14C 165.437,18.811 167.604,24.9777 166,32.5C 163.084,41.4956 160.917,50.6622 159.5,60C 159.667,61.8333 159.833,63.6667 160,65.5C 162.898,71.0376 165.731,76.5376 168.5,82C 166.811,87.5855 162.977,90.0855 157,89.5C 144.625,88.1103 135.958,81.777 131,70.5C 130.575,66.1305 130.908,61.7972 132,57.5C 134.244,51.1769 135.744,44.6769 136.5,38C 135.822,34.8048 134.988,31.6381 134,28.5C 130.044,24.5999 128.377,19.9333 129,14.5C 130.965,12.4497 133.132,10.783 135.5,9.5 Z"/></g>
</svg>
