<?xml version="1.0" encoding="UTF-8"?>
<!DOCTYPE svg PUBLIC "-//W3C//DTD SVG 1.1//EN" "http://www.w3.org/Graphics/SVG/1.1/DTD/svg11.dtd">
<svg xmlns="http://www.w3.org/2000/svg" version="1.1" width="200px" height="100px" style="shape-rendering:geometricPrecision; text-rendering:geometricPrecision; image-rendering:optimizeQuality; fill-rule:evenodd; clip-rule:evenodd" xmlns:xlink="http://www.w3.org/1999/xlink">
<g><path style="opacity:0.998" fill="#fffefe" d="M 4.5,-0.5 C 67.8333,-0.5 131.167,-0.5 194.5,-0.5C 196.167,1.16667 197.833,2.83333 199.5,4.5C 199.5,34.5 199.5,64.5 199.5,94.5C 197.833,96.1667 196.167,97.8333 194.5,99.5C 131.167,99.5 67.8333,99.5 4.5,99.5C 2.83333,97.8333 1.16667,96.1667 -0.5,94.5C -0.5,64.5 -0.5,34.5 -0.5,4.5C 1.16667,2.83333 2.83333,1.16667 4.5,-0.5 Z"/></g>
<g><path style="opacity:1" fill="#ef4047" d="M 63.5,9.5 C 74.1819,8.23673 83.3486,11.2367 91,18.5C 93.2702,22.9301 93.9369,27.5967 93,32.5C 90.1115,41.331 87.9448,50.331 86.5,59.5C 86.5069,62.5917 87.0069,65.5917 88,68.5C 91.0214,72.5441 93.5214,76.8774 95.5,81.5C 94.7367,85.431 92.4034,87.931 88.5,89C 77.598,89.4697 68.4313,85.6364 61,77.5C 58.5687,71.0513 57.9021,64.3846 59,57.5C 61.941,49.7438 63.2743,41.7438 63,33.5C 60.0822,28.1661 57.5822,22.6661 55.5,17C 55.4393,15.2894 56.1059,13.956 57.5,13C 59.4319,11.5415 61.4319,10.3748 63.5,9.5 Z"/></g>
<g><path style="opacity:1" fill="#ef4047" d="M 112.5,9.5 C 123.182,8.23673 132.349,11.2367 140,18.5C 142.27,22.9301 142.937,27.5967 142,32.5C 139,41.4932 136.833,50.6599 135.5,60C 135.667,62.1667 135.833,64.3333 136,66.5C 139.072,71.395 141.905,76.395 144.5,81.5C 143.737,85.431 141.403,87.931 137.5,89C 126.598,89.4697 117.431,85.6364 110,77.5C 107.569,71.0513 106.902,64.3846 108,57.5C 111.144,49.7835 112.477,41.7835 112,33.5C 109.082,28.1661 106.582,22.6661 104.5,17C 105.731,12.9348 108.398,10.4348 112.5,9.5 Z"/></g>
</svg>
