<?xml version="1.0" encoding="UTF-8"?>
<!DOCTYPE svg PUBLIC "-//W3C//DTD SVG 1.1//EN" "http://www.w3.org/Graphics/SVG/1.1/DTD/svg11.dtd">
<svg xmlns="http://www.w3.org/2000/svg" version="1.1" width="200px" height="100px" style="shape-rendering:geometricPrecision; text-rendering:geometricPrecision; image-rendering:optimizeQuality; fill-rule:evenodd; clip-rule:evenodd" xmlns:xlink="http://www.w3.org/1999/xlink">
<g><path style="opacity:0.998" fill="#fffdfd" d="M 4.5,-0.5 C 67.8333,-0.5 131.167,-0.5 194.5,-0.5C 196.167,1.16667 197.833,2.83333 199.5,4.5C 199.5,34.5 199.5,64.5 199.5,94.5C 197.833,96.1667 196.167,97.8333 194.5,99.5C 131.167,99.5 67.8333,99.5 4.5,99.5C 2.83333,97.8333 1.16667,96.1667 -0.5,94.5C -0.5,64.5 -0.5,34.5 -0.5,4.5C 1.16667,2.83333 2.83333,1.16667 4.5,-0.5 Z"/></g>
<g><path style="opacity:1" fill="#f14f53" d="M 38.5,9.5 C 49.1819,8.23673 58.3486,11.2367 66,18.5C 68.2702,22.9301 68.9369,27.5967 68,32.5C 65.1115,41.331 62.9448,50.331 61.5,59.5C 61.5069,62.5917 62.0069,65.5917 63,68.5C 66.1612,72.6579 68.6612,77.1579 70.5,82C 69.442,86.0522 66.7753,88.3856 62.5,89C 52.0005,89.1706 43.1671,85.3372 36,77.5C 33.5687,71.0513 32.9021,64.3846 34,57.5C 36.9463,49.7277 38.2797,41.7277 38,33.5C 35.0822,28.1661 32.5822,22.6661 30.5,17C 30.4393,15.2894 31.1059,13.956 32.5,13C 34.4319,11.5415 36.4319,10.3748 38.5,9.5 Z"/></g>
<g><path style="opacity:1" fill="#f14f52" d="M 87.5,9.5 C 98.1819,8.23673 107.349,11.2367 115,18.5C 117.27,22.9301 117.937,27.5967 117,32.5C 114.111,41.331 111.945,50.331 110.5,59.5C 110.507,62.5917 111.007,65.5917 112,68.5C 115.021,72.5441 117.521,76.8774 119.5,81.5C 118.737,85.431 116.403,87.931 112.5,89C 101.598,89.4697 92.4313,85.6364 85,77.5C 82.5687,71.0513 81.9021,64.3846 83,57.5C 86.1465,49.7721 87.4799,41.7721 87,33.5C 84.0822,28.1661 81.5822,22.6661 79.5,17C 80.7309,12.9348 83.3976,10.4348 87.5,9.5 Z"/></g>
<g><path style="opacity:1" fill="#f14f53" d="M 136.5,9.5 C 147.182,8.23673 156.349,11.2367 164,18.5C 166.27,22.9301 166.937,27.5967 166,32.5C 163.007,41.4778 160.84,50.6445 159.5,60C 159.667,62.1667 159.833,64.3333 160,66.5C 163.072,71.395 165.905,76.395 168.5,81.5C 167.737,85.431 165.403,87.931 161.5,89C 150.598,89.4697 141.431,85.6364 134,77.5C 131.569,71.0513 130.902,64.3846 132,57.5C 135.144,49.7835 136.477,41.7835 136,33.5C 133.065,28.1355 130.565,22.6355 128.5,17C 129.731,12.9348 132.398,10.4348 136.5,9.5 Z"/></g>
<g><path style="opacity:1" fill="#fffbfb" d="M 38.5,12.5 C 46.2024,12.2737 53.5357,13.7737 60.5,17C 65.0869,21.2277 66.5869,26.3943 65,32.5C 62.1075,41.3402 59.9409,50.3402 58.5,59.5C 58.6066,62.567 59.1066,65.567 60,68.5C 62.5165,73.01 65.0165,77.51 67.5,82C 65.6861,85.1776 62.8527,86.6776 59,86.5C 53.1376,85.3212 47.6376,83.1546 42.5,80C 39.8941,78.0616 38.0608,75.5616 37,72.5C 36.3333,67.8333 36.3333,63.1667 37,58.5C 38.8971,51.7459 40.3971,44.9126 41.5,38C 41.4347,35.4088 40.9347,32.9088 40,30.5C 37.5909,26.2662 35.4242,21.9329 33.5,17.5C 33.6667,16.8333 33.8333,16.1667 34,15.5C 35.6516,14.6006 37.1516,13.6006 38.5,12.5 Z"/></g>
<g><path style="opacity:1" fill="#fffbfb" d="M 87.5,12.5 C 95.2024,12.2737 102.536,13.7737 109.5,17C 114.087,21.2277 115.587,26.3943 114,32.5C 111.108,41.3402 108.941,50.3402 107.5,59.5C 107.607,62.567 108.107,65.567 109,68.5C 111.516,73.01 114.016,77.51 116.5,82C 114.686,85.1776 111.853,86.6776 108,86.5C 102.138,85.3212 96.6376,83.1546 91.5,80C 88.8941,78.0616 87.0608,75.5616 86,72.5C 85.3333,67.8333 85.3333,63.1667 86,58.5C 87.8971,51.7459 89.3971,44.9126 90.5,38C 90.4347,35.4088 89.9347,32.9088 89,30.5C 86.5909,26.2662 84.4242,21.9329 82.5,17.5C 82.6667,16.8333 82.8333,16.1667 83,15.5C 84.6516,14.6006 86.1516,13.6006 87.5,12.5 Z"/></g>
<g><path style="opacity:1" fill="#fffcfc" d="M 136.5,12.5 C 144.202,12.2737 151.536,13.7737 158.5,17C 163.087,21.2277 164.587,26.3943 163,32.5C 160.2,41.0353 158.033,49.7019 156.5,58.5C 156.561,61.9026 157.061,65.2359 158,68.5C 160.516,73.01 163.016,77.51 165.5,82C 163.686,85.1776 160.853,86.6776 157,86.5C 151.103,85.3128 145.603,83.1461 140.5,80C 134.788,74.3306 132.955,67.4972 135,59.5C 136.74,52.3763 138.24,45.2097 139.5,38C 139.435,35.4088 138.935,32.9088 138,30.5C 135.591,26.2662 133.424,21.9329 131.5,17.5C 131.667,16.8333 131.833,16.1667 132,15.5C 133.652,14.6006 135.152,13.6006 136.5,12.5 Z"/></g>
</svg>
