<?xml version="1.0" encoding="UTF-8"?>
<!DOCTYPE svg PUBLIC "-//W3C//DTD SVG 1.1//EN" "http://www.w3.org/Graphics/SVG/1.1/DTD/svg11.dtd">
<svg xmlns="http://www.w3.org/2000/svg" version="1.1" width="200px" height="100px" style="shape-rendering:geometricPrecision; text-rendering:geometricPrecision; image-rendering:optimizeQuality; fill-rule:evenodd; clip-rule:evenodd" xmlns:xlink="http://www.w3.org/1999/xlink">
<g><path style="opacity:0.998" fill="#fefefe" d="M 4.5,-0.5 C 67.8333,-0.5 131.167,-0.5 194.5,-0.5C 196.167,1.16667 197.833,2.83333 199.5,4.5C 199.5,34.5 199.5,64.5 199.5,94.5C 197.833,96.1667 196.167,97.8333 194.5,99.5C 131.167,99.5 67.8333,99.5 4.5,99.5C 2.83333,97.8333 1.16667,96.1667 -0.5,94.5C -0.5,64.5 -0.5,34.5 -0.5,4.5C 1.16667,2.83333 2.83333,1.16667 4.5,-0.5 Z"/></g>
<g><path style="opacity:1" fill="#ff8d85" d="M 62.5,9.5 C 70.9734,8.59816 78.9734,10.0982 86.5,14C 92.4374,18.811 94.6041,24.9777 93,32.5C 90.7471,41.3443 88.5805,50.1776 86.5,59C 86.6368,61.898 87.1368,64.7314 88,67.5C 90.9682,72.1229 93.4682,76.9562 95.5,82C 95.01,84.5028 93.6766,86.5028 91.5,88C 79.4329,90.3988 69.2662,86.8988 61,77.5C 57.1445,71.1726 56.4778,64.5059 59,57.5C 61.3632,51.2127 62.8632,44.7127 63.5,38C 61.656,30.9824 58.9893,24.3157 55.5,18C 56.2271,13.7787 58.5605,10.9453 62.5,9.5 Z"/></g>
<g><path style="opacity:1" fill="#ff8d85" d="M 111.5,9.5 C 119.973,8.59816 127.973,10.0982 135.5,14C 141.437,18.811 143.604,24.9777 142,32.5C 139.084,41.4956 136.917,50.6622 135.5,60C 135.667,61.8333 135.833,63.6667 136,65.5C 138.898,71.0376 141.731,76.5376 144.5,82C 142.811,87.5855 138.977,90.0855 133,89.5C 120.625,88.1103 111.958,81.777 107,70.5C 106.575,66.1305 106.908,61.7972 108,57.5C 110.244,51.1769 111.744,44.6769 112.5,38C 110.513,30.8668 107.847,24.0334 104.5,17.5C 105.411,13.5894 107.744,10.9227 111.5,9.5 Z"/></g>
</svg>
