<?xml version="1.0" encoding="UTF-8"?>
<!DOCTYPE svg PUBLIC "-//W3C//DTD SVG 1.1//EN" "http://www.w3.org/Graphics/SVG/1.1/DTD/svg11.dtd">
<svg xmlns="http://www.w3.org/2000/svg" version="1.1" width="200px" height="100px" style="shape-rendering:geometricPrecision; text-rendering:geometricPrecision; image-rendering:optimizeQuality; fill-rule:evenodd; clip-rule:evenodd" xmlns:xlink="http://www.w3.org/1999/xlink">
<g><path style="opacity:0.998" fill="#fffefe" d="M 4.5,-0.5 C 67.8333,-0.5 131.167,-0.5 194.5,-0.5C 196.167,1.16667 197.833,2.83333 199.5,4.5C 199.5,34.5 199.5,64.5 199.5,94.5C 197.833,96.1667 196.167,97.8333 194.5,99.5C 131.167,99.5 67.8333,99.5 4.5,99.5C 2.83333,97.8333 1.16667,96.1667 -0.5,94.5C -0.5,64.5 -0.5,34.5 -0.5,4.5C 1.16667,2.83333 2.83333,1.16667 4.5,-0.5 Z"/></g>
<g><path style="opacity:1" fill="#f14f53" d="M 63.5,9.5 C 74.1819,8.23673 83.3486,11.2367 91,18.5C 93.2702,22.9301 93.9369,27.5967 93,32.5C 90.1115,41.331 87.9448,50.331 86.5,59.5C 86.5069,62.5917 87.0069,65.5917 88,68.5C 91.1612,72.6579 93.6612,77.1579 95.5,82C 94.5505,85.6164 92.2172,87.9497 88.5,89C 77.598,89.4697 68.4313,85.6364 61,77.5C 58.5687,71.0513 57.9021,64.3846 59,57.5C 61.9463,49.7277 63.2797,41.7277 63,33.5C 60.0822,28.1661 57.5822,22.6661 55.5,17C 55.4393,15.2894 56.1059,13.956 57.5,13C 59.4319,11.5415 61.4319,10.3748 63.5,9.5 Z"/></g>
<g><path style="opacity:1" fill="#f14f53" d="M 112.5,9.5 C 123.182,8.23673 132.349,11.2367 140,18.5C 142.27,22.9301 142.937,27.5967 142,32.5C 139.007,41.4778 136.84,50.6445 135.5,60C 135.667,62.1667 135.833,64.3333 136,66.5C 139.072,71.395 141.905,76.395 144.5,81.5C 143.737,85.431 141.403,87.931 137.5,89C 126.598,89.4697 117.431,85.6364 110,77.5C 107.569,71.0513 106.902,64.3846 108,57.5C 111.144,49.7835 112.477,41.7835 112,33.5C 109.082,28.1661 106.582,22.6661 104.5,17C 105.731,12.9348 108.398,10.4348 112.5,9.5 Z"/></g>
<g><path style="opacity:1" fill="#fffbfb" d="M 63.5,12.5 C 71.2024,12.2737 78.5357,13.7737 85.5,17C 90.0869,21.2277 91.5869,26.3943 90,32.5C 87.1075,41.3402 84.9409,50.3402 83.5,59.5C 83.6066,62.567 84.1066,65.567 85,68.5C 87.5165,73.01 90.0165,77.51 92.5,82C 90.6861,85.1776 87.8527,86.6776 84,86.5C 78.1376,85.3212 72.6376,83.1546 67.5,80C 64.8941,78.0616 63.0608,75.5616 62,72.5C 61.3333,67.8333 61.3333,63.1667 62,58.5C 63.8971,51.7459 65.3971,44.9126 66.5,38C 66.4347,35.4088 65.9347,32.9088 65,30.5C 62.5909,26.2662 60.4242,21.9329 58.5,17.5C 58.6667,16.8333 58.8333,16.1667 59,15.5C 60.6516,14.6006 62.1516,13.6006 63.5,12.5 Z"/></g>
<g><path style="opacity:1" fill="#fffcfc" d="M 112.5,12.5 C 120.202,12.2737 127.536,13.7737 134.5,17C 139.087,21.2277 140.587,26.3943 139,32.5C 136.2,41.0353 134.033,49.7019 132.5,58.5C 132.561,61.9026 133.061,65.2359 134,68.5C 136.516,73.01 139.016,77.51 141.5,82C 139.686,85.1776 136.853,86.6776 133,86.5C 127.138,85.3212 121.638,83.1546 116.5,80C 113.894,78.0616 112.061,75.5616 111,72.5C 110.333,67.8333 110.333,63.1667 111,58.5C 112.897,51.7459 114.397,44.9126 115.5,38C 115.435,35.4088 114.935,32.9088 114,30.5C 111.591,26.2662 109.424,21.9329 107.5,17.5C 107.667,16.8333 107.833,16.1667 108,15.5C 109.652,14.6006 111.152,13.6006 112.5,12.5 Z"/></g>
</svg>
