<?xml version="1.0" encoding="UTF-8"?>
<!DOCTYPE svg PUBLIC "-//W3C//DTD SVG 1.1//EN" "http://www.w3.org/Graphics/SVG/1.1/DTD/svg11.dtd">
<svg xmlns="http://www.w3.org/2000/svg" version="1.1" width="200px" height="100px" style="shape-rendering:geometricPrecision; text-rendering:geometricPrecision; image-rendering:optimizeQuality; fill-rule:evenodd; clip-rule:evenodd" xmlns:xlink="http://www.w3.org/1999/xlink">
<g><path style="opacity:0.998" fill="#fffefe" d="M 4.5,-0.5 C 67.8333,-0.5 131.167,-0.5 194.5,-0.5C 196.167,1.16667 197.833,2.83333 199.5,4.5C 199.5,34.5 199.5,64.5 199.5,94.5C 197.833,96.1667 196.167,97.8333 194.5,99.5C 131.167,99.5 67.8333,99.5 4.5,99.5C 2.83333,97.8333 1.16667,96.1667 -0.5,94.5C -0.5,64.5 -0.5,34.5 -0.5,4.5C 1.16667,2.83333 2.83333,1.16667 4.5,-0.5 Z"/></g>
<g><path style="opacity:1" fill="#ef4047" d="M 87.5,9.5 C 98.1819,8.23673 107.349,11.2367 115,18.5C 117.27,22.9301 117.937,27.5967 117,32.5C 114.007,41.4778 111.84,50.6445 110.5,60C 110.667,62.1667 110.833,64.3333 111,66.5C 114.072,71.395 116.905,76.395 119.5,81.5C 118.737,85.431 116.403,87.931 112.5,89C 101.598,89.4697 92.4313,85.6364 85,77.5C 82.5687,71.0513 81.9021,64.3846 83,57.5C 85.941,49.7438 87.2743,41.7438 87,33.5C 84.0822,28.1661 81.5822,22.6661 79.5,17C 79.4393,15.2894 80.1059,13.956 81.5,13C 83.4319,11.5415 85.4319,10.3748 87.5,9.5 Z"/></g>
</svg>
