<?xml version="1.0" encoding="UTF-8"?>
<!DOCTYPE svg PUBLIC "-//W3C//DTD SVG 1.1//EN" "http://www.w3.org/Graphics/SVG/1.1/DTD/svg11.dtd">
<svg xmlns="http://www.w3.org/2000/svg" version="1.1" width="200px" height="100px" style="shape-rendering:geometricPrecision; text-rendering:geometricPrecision; image-rendering:optimizeQuality; fill-rule:evenodd; clip-rule:evenodd" xmlns:xlink="http://www.w3.org/1999/xlink">
<g><path style="opacity:0.998" fill="#fffefe" d="M 4.5,-0.5 C 67.8333,-0.5 131.167,-0.5 194.5,-0.5C 196.167,1.16667 197.833,2.83333 199.5,4.5C 199.5,34.5 199.5,64.5 199.5,94.5C 197.833,96.1667 196.167,97.8333 194.5,99.5C 131.167,99.5 67.8333,99.5 4.5,99.5C 2.83333,97.8333 1.16667,96.1667 -0.5,94.5C -0.5,64.5 -0.5,34.5 -0.5,4.5C 1.16667,2.83333 2.83333,1.16667 4.5,-0.5 Z"/></g>
<g><path style="opacity:1" fill="#ff8d85" d="M 87.5,9.5 C 98.1819,8.23673 107.349,11.2367 115,18.5C 117.401,23.2317 118.068,28.2317 117,33.5C 114.128,42.1544 111.961,50.9877 110.5,60C 110.637,62.898 111.137,65.7314 112,68.5C 115.155,72.645 117.655,77.145 119.5,82C 116.209,88.6398 110.876,90.9731 103.5,89C 94.3031,86.8325 87.4698,81.6658 83,73.5C 82.2618,71.0472 81.7618,68.5472 81.5,66C 83.5,57 85.5,48 87.5,39C 87.2382,36.4528 86.7382,33.9528 86,31.5C 83.4149,26.8318 81.2482,21.9984 79.5,17C 79.4393,15.2894 80.1059,13.956 81.5,13C 83.4319,11.5415 85.4319,10.3748 87.5,9.5 Z"/></g>
</svg>
